0
SECTION
2
HEADER
9
$INSUNITS
70
4
9
$ACADVER
1
AC1014
9
$HANDSEED
5
FFFF
0
ENDSEC
0
SECTION
2
TABLES
0
TABLE
2
VPORT
5
8
100
AcDbSymbolTable
0
ENDTAB
0
TABLE
2
LTYPE
5
5
100
AcDbSymbolTable
0
LTYPE
5
14
100
AcDbSymbolTableRecord
100
AcDbLinetypeTableRecord
2
BYBLOCK
70
0
0
LTYPE
5
15
100
AcDbSymbolTableRecord
100
AcDbLinetypeTableRecord
2
BYLAYER
70
0
0
LTYPE
5
16
100
AcDbSymbolTableRecord
100
AcDbLinetypeTableRecord
2
DASHED
70
0
3
Dashed __ __ __ __ __ __ __ __ __ __ __ __ __ _
72
65
73
2
40
0.75
49
0.5
74
0
49
-0.25
74
0
0
ENDTAB
0
TABLE
2
LAYER
5
2
100
AcDbSymbolTable
70
2
0
LAYER
5
50
100
AcDbSymbolTableRecord
100
AcDbLayerTableRecord
2
0
70
0
62
7
6
CONTINUOUS
0
ENDTAB
0
TABLE
2
STYLE
5
3
100
AcDbSymbolTable
70
1
0
STYLE
5
11
100
AcDbSymbolTableRecord
100
AcDbTextStyleTableRecord
2
STANDARD
70
0
0
ENDTAB
0
TABLE
2
VIEW
5
6
100
AcDbSymbolTable
70
0
0
ENDTAB
0
TABLE
2
UCS
5
7
100
AcDbSymbolTable
70
0
0
ENDTAB
0
TABLE
2
APPID
5
9
100
AcDbSymbolTable
70
2
0
APPID
5
12
100
AcDbSymbolTableRecord
100
AcDbRegAppTableRecord
2
ACAD
70
0
0
ENDTAB
0
TABLE
2
DIMSTYLE
5
A
100
AcDbSymbolTable
70
1
0
ENDTAB
0
TABLE
2
BLOCK_RECORD
5
1
100
AcDbSymbolTable
70
1
0
BLOCK_RECORD
5
1F
100
AcDbSymbolTableRecord
100
AcDbBlockTableRecord
2
*MODEL_SPACE
0
BLOCK_RECORD
5
1B
100
AcDbSymbolTableRecord
100
AcDbBlockTableRecord
2
*PAPER_SPACE
0
ENDTAB
0
ENDSEC
0
SECTION
2
BLOCKS
0
BLOCK
5
20
100
AcDbEntity
100
AcDbBlockBegin
2
*MODEL_SPACE
0
ENDBLK
5
21
100
AcDbEntity
100
AcDbBlockEnd
0
BLOCK
5
1C
100
AcDbEntity
100
AcDbBlockBegin
2
*PAPER_SPACE
0
ENDBLK
5
1D
100
AcDbEntity
100
AcDbBlockEnd
0
ENDSEC
0
SECTION
2
ENTITIES
0
POINT
5
100
100
AcDbEntity
8
0
100
AcDbPoint
10
0
20
0
30
0
0
LWPOLYLINE
5
101
100
AcDbEntity
8
0
100
AcDbPolyline
90
24
70
1
43
0.0
10
-20
20
-39.371330076441389
42
0.41421356237309498
10
0
20
-19.371330076441385
10
-1.1102230246251565e-15
20
-10
42
0.41421356237309559
10
-9.9999999999999982
20
-1.1102230246251345e-15
10
-169.02010705734739
20
0
42
0.41421356237309326
10
-179.02010705734739
20
-10
10
-179.02010705734739
20
-97.436950191914505
42
-0.41421356237309503
10
-189.02010705734739
20
-107.43695019191451
10
-224.3704593950813
20
-107.43695019191451
42
-0.41421356237309503
10
-234.3704593950813
20
-97.436950191914505
10
-234.3704593950813
20
-10
42
0.41421356237309326
10
-244.3704593950813
20
8.8817841970012523e-15
10
-379.75397926313462
20
0
42
0.41421356237309398
10
-389.75397926313462
20
-9.9999999999999982
10
-389.75397926313462
20
-238.82314037332421
42
0.41421356237309398
10
-379.75397926313462
20
-248.82314037332418
10
-10
20
-248.82314037332421
42
0.41421356237309426
10
8.8817841970012523e-15
20
-238.82314037332418
10
0
20
-109.37133007644138
42
0.41421356237309553
10
-20.000000000000004
20
-89.371330076441382
10
-60.565097679624209
20
-89.371330076441382
42
-0.41421356237309503
10
-80.565097679624216
20
-69.371330076441382
10
-80.565097679624216
20
-59.371330076441389
42
-0.41421356237309503
10
-60.565097679624209
20
-39.371330076441389
0
LWPOLYLINE
5
102
100
AcDbEntity
8
0
100
AcDbPolyline
90
4
70
1
43
0.0
10
-371.33717068612378
20
-216.13193922417889
10
-371.33717068612378
20
-231.13193922417889
42
-0.99999999999999989
10
-376.33717068612378
20
-231.13193922417889
10
-376.33717068612378
20
-216.13193922417889
42
-0.99999999999999989
0
LWPOLYLINE
5
103
100
AcDbEntity
8
0
100
AcDbPolyline
90
4
70
1
43
0.0
10
-371.33717068612378
20
-16.131939224178868
10
-371.33717068612378
20
-31.131939224178868
42
-0.99999999999999989
10
-376.33717068612378
20
-31.131939224178868
10
-376.33717068612378
20
-16.131939224178868
42
-0.99999999999999989
0
LWPOLYLINE
5
104
100
AcDbEntity
8
0
100
AcDbPolyline
90
4
70
1
43
0.0
10
-11.337170686123716
20
-216.13193922417889
42
0.99999999999999989
10
-16.337170686123716
20
-216.13193922417889
10
-16.337170686123716
20
-231.13193922417889
42
0.99999999999999989
10
-11.337170686123716
20
-231.13193922417889
0
LWPOLYLINE
5
105
100
AcDbEntity
8
0
100
AcDbPolyline
90
4
70
1
43
0.0
10
-11.337170686123716
20
-16.131939224178868
10
-11.337170686123725
20
-31.131939224178879
42
-0.99999999999999989
10
-16.337170686123716
20
-31.131939224178868
10
-16.33717068612372
20
-16.131939224178872
42
-0.99999999999999989
0
CIRCLE
5
106
100
AcDbEntity
8
0
100
AcDbCircle
10
-379.75397926313462
20
-238.82314037332418
30
0
40
1.4999999999999858
210
0
220
0
230
1
0
CIRCLE
5
107
100
AcDbEntity
8
0
100
AcDbCircle
10
-9.9999999999999893
20
-9.9999999999999893
30
0
40
1.5000000000000013
210
0
220
0
230
1
0
CIRCLE
5
108
100
AcDbEntity
8
0
100
AcDbCircle
10
-379.75397926313462
20
-10.000000000000036
30
0
40
1.4999999999999858
210
0
220
0
230
1
0
CIRCLE
5
109
100
AcDbEntity
8
0
100
AcDbCircle
10
-10.000000000000027
20
-238.82314037332418
30
0
40
1.5000000000000058
210
0
220
0
230
1
0
CIRCLE
5
110
100
AcDbEntity
8
0
100
AcDbCircle
10
-183.19006100183412
20
-182.45152880603604
30
0
40
1.7743563837924015
210
0
220
-0
230
1
0
CIRCLE
5
111
100
AcDbEntity
8
0
100
AcDbCircle
10
-233.35882678550081
20
-139.20136933624144
30
0
40
1.7740016189415186
210
0
220
-0
230
1
0
CIRCLE
5
112
100
AcDbEntity
8
0
100
AcDbCircle
10
-183.19006100183412
20
-123.80303528382888
30
0
40
1.7743563837924015
210
0
220
-0
230
1
0
CIRCLE
5
113
100
AcDbEntity
8
0
100
AcDbCircle
10
-233.35882678550081
20
-167.05319475362356
30
0
40
1.7385215865627046
210
0
220
-0
230
1
0
CIRCLE
5
114
100
AcDbEntity
8
0
100
AcDbCircle
10
-104.01300690975711
20
-95.421610450560706
30
0
40
1.5000000000000036
210
0
220
-0
230
1
0
CIRCLE
5
115
100
AcDbEntity
8
0
100
AcDbCircle
10
-104.01300690975714
20
-171.92161045055883
30
0
40
1.4999999999999858
210
0
220
-0
230
1
0
CIRCLE
5
116
100
AcDbEntity
8
0
100
AcDbCircle
10
-23.313006909759004
20
-95.421610450560792
30
0
40
1.5000000000000036
210
0
220
-0
230
1
0
CIRCLE
5
117
100
AcDbEntity
8
0
100
AcDbCircle
10
-23.313006909759039
20
-171.92161045055883
30
0
40
1.5000000000000213
210
0
220
-0
230
1
0
CIRCLE
5
118
100
AcDbEntity
8
0
100
AcDbCircle
10
-297.9102866951722
20
-81.243265068034788
30
0
40
0.85000000000000853
210
0
220
-0
230
1
0
CIRCLE
5
119
100
AcDbEntity
8
0
100
AcDbCircle
10
-366.41028669517226
20
-203.24326506803484
30
0
40
0.85000000000000853
210
0
220
-0
230
1
0
CIRCLE
5
120
100
AcDbEntity
8
0
100
AcDbCircle
10
-366.4102866951722
20
-81.243265068034788
30
0
40
0.85000000000000853
210
0
220
-0
230
1
0
CIRCLE
5
121
100
AcDbEntity
8
0
100
AcDbCircle
10
-297.91028669517226
20
-203.24326506803484
30
0
40
0.85000000000000853
210
0
220
-0
230
1
0
CIRCLE
5
122
100
AcDbEntity
8
0
100
AcDbCircle
10
-256.69528322621403
20
-107.43695019191451
30
0
40
3.1499999999999773
210
0
220
-0
230
1
0
CIRCLE
5
123
100
AcDbEntity
8
0
100
AcDbCircle
10
-169.19528322621403
20
-19.93695019191458
30
0
40
1.5500000000000114
210
0
220
-0
230
1
0
CIRCLE
5
124
100
AcDbEntity
8
0
100
AcDbCircle
10
-156.69528322621403
20
-7.4369501919145602
30
0
40
3.149999999999995
210
0
220
-0
230
1
0
CIRCLE
5
125
100
AcDbEntity
8
0
100
AcDbCircle
10
-244.19528322621403
20
-94.936950191914576
30
0
40
1.5500000000000114
210
0
220
-0
230
1
0
CIRCLE
5
126
100
AcDbEntity
8
0
100
AcDbCircle
10
-256.69528322621403
20
-7.4369501919145513
30
0
40
3.1499999999999773
210
0
220
-0
230
1
0
CIRCLE
5
127
100
AcDbEntity
8
0
100
AcDbCircle
10
-169.19528322621403
20
-94.936950191914576
30
0
40
1.5500000000000114
210
0
220
-0
230
1
0
CIRCLE
5
128
100
AcDbEntity
8
0
100
AcDbCircle
10
-156.69528322621403
20
-107.43695019191451
30
0
40
3.149999999999995
210
0
220
-0
230
1
0
CIRCLE
5
129
100
AcDbEntity
8
0
100
AcDbCircle
10
-244.19528322621403
20
-19.93695019191458
30
0
40
1.5500000000000114
210
0
220
-0
230
1
0
CIRCLE
5
130
100
AcDbEntity
8
0
100
AcDbCircle
10
-9.9999999999999893
20
-9.9999999999999893
30
0
40
1.5000000000000013
210
0
220
0
230
1
0
LWPOLYLINE
5
131
100
AcDbEntity
8
0
100
AcDbPolyline
90
24
70
1
43
0.0
10
8.8817841970012523e-15
20
-238.82314037332418
10
0
20
-109.37133007644138
42
0.41421356237309553
10
-20.000000000000004
20
-89.371330076441382
10
-60.565097679624209
20
-89.371330076441382
42
-0.41421356237309503
10
-80.565097679624216
20
-69.371330076441382
10
-80.565097679624216
20
-59.371330076441389
42
-0.41421356237309503
10
-60.565097679624209
20
-39.371330076441389
10
-20
20
-39.371330076441389
42
0.41421356237309498
10
0
20
-19.371330076441385
10
-1.1102230246251565e-15
20
-10
42
0.41421356237309559
10
-9.9999999999999982
20
-1.1102230246251345e-15
10
-169.02010705734739
20
0
42
0.41421356237309326
10
-179.02010705734739
20
-10
10
-179.02010705734739
20
-97.436950191914505
42
-0.41421356237309503
10
-189.02010705734739
20
-107.43695019191451
10
-224.3704593950813
20
-107.43695019191451
42
-0.41421356237309503
10
-234.3704593950813
20
-97.436950191914505
10
-234.3704593950813
20
-10
42
0.41421356237309326
10
-244.3704593950813
20
8.8817841970012523e-15
10
-379.75397926313462
20
0
42
0.41421356237309398
10
-389.75397926313462
20
-9.9999999999999982
10
-389.75397926313462
20
-238.82314037332421
42
0.41421356237309398
10
-379.75397926313462
20
-248.82314037332418
10
-10
20
-248.82314037332421
42
0.41421356237309426
0
CIRCLE
5
132
100
AcDbEntity
8
0
100
AcDbCircle
10
-23.313006909759004
20
-95.421610450560792
30
0
40
1.5000000000000036
210
0
220
-0
230
1
0
LWPOLYLINE
5
133
100
AcDbEntity
8
0
100
AcDbPolyline
90
4
70
1
43
0.0
10
-11.337170686123716
20
-16.131939224178868
42
0.99999999999999989
10
-16.33717068612372
20
-16.131939224178872
10
-16.337170686123716
20
-31.131939224178868
42
0.99999999999999989
10
-11.337170686123716
20
-31.131939224178868
0
CIRCLE
5
134
100
AcDbEntity
8
0
100
AcDbCircle
10
-23.313006909759039
20
-171.92161045055883
30
0
40
1.5000000000000213
210
0
220
-0
230
1
0
CIRCLE
5
135
100
AcDbEntity
8
0
100
AcDbCircle
10
-244.19528322621403
20
-19.93695019191458
30
0
40
1.5500000000000114
210
0
220
-0
230
1
0
CIRCLE
5
136
100
AcDbEntity
8
0
100
AcDbCircle
10
-156.69528322621403
20
-107.43695019191451
30
0
40
3.149999999999995
210
0
220
-0
230
1
0
LWPOLYLINE
5
137
100
AcDbEntity
8
0
100
AcDbPolyline
90
4
70
1
43
0.0
10
-11.337170686123716
20
-216.13193922417889
10
-11.337170686123716
20
-231.13193922417889
42
-0.99999999999999989
10
-16.337170686123716
20
-231.13193922417889
10
-16.337170686123716
20
-216.13193922417889
42
-0.99999999999999989
0
CIRCLE
5
138
100
AcDbEntity
8
0
100
AcDbCircle
10
-244.19528322621403
20
-94.936950191914576
30
0
40
1.5500000000000114
210
0
220
-0
230
1
0
CIRCLE
5
139
100
AcDbEntity
8
0
100
AcDbCircle
10
-169.19528322621403
20
-94.936950191914576
30
0
40
1.5500000000000114
210
0
220
-0
230
1
0
CIRCLE
5
140
100
AcDbEntity
8
0
100
AcDbCircle
10
-256.69528322621403
20
-7.4369501919145513
30
0
40
3.1499999999999773
210
0
220
-0
230
1
0
CIRCLE
5
141
100
AcDbEntity
8
0
100
AcDbCircle
10
-104.01300690975714
20
-171.92161045055883
30
0
40
1.4999999999999858
210
0
220
-0
230
1
0
CIRCLE
5
142
100
AcDbEntity
8
0
100
AcDbCircle
10
-10.000000000000027
20
-238.82314037332418
30
0
40
1.5000000000000058
210
0
220
0
230
1
0
CIRCLE
5
143
100
AcDbEntity
8
0
100
AcDbCircle
10
-104.01300690975711
20
-95.421610450560706
30
0
40
1.5000000000000036
210
0
220
-0
230
1
0
CIRCLE
5
144
100
AcDbEntity
8
0
100
AcDbCircle
10
-366.4102866951722
20
-81.243265068034788
30
0
40
0.85000000000000853
210
0
220
-0
230
1
0
CIRCLE
5
145
100
AcDbEntity
8
0
100
AcDbCircle
10
-256.69528322621403
20
-107.43695019191451
30
0
40
3.1499999999999773
210
0
220
-0
230
1
0
CIRCLE
5
146
100
AcDbEntity
8
0
100
AcDbCircle
10
-366.41028669517226
20
-203.24326506803484
30
0
40
0.85000000000000853
210
0
220
-0
230
1
0
CIRCLE
5
147
100
AcDbEntity
8
0
100
AcDbCircle
10
-297.91028669517226
20
-203.24326506803484
30
0
40
0.85000000000000853
210
0
220
-0
230
1
0
CIRCLE
5
148
100
AcDbEntity
8
0
100
AcDbCircle
10
-156.69528322621403
20
-7.4369501919145602
30
0
40
3.149999999999995
210
0
220
-0
230
1
0
LWPOLYLINE
5
149
100
AcDbEntity
8
0
100
AcDbPolyline
90
4
70
1
43
0.0
10
-376.33717068612378
20
-231.13193922417889
10
-376.33717068612378
20
-216.13193922417889
42
-0.99999999999999989
10
-371.33717068612378
20
-216.13193922417889
10
-371.33717068612378
20
-231.13193922417889
42
-0.99999999999999989
0
CIRCLE
5
150
100
AcDbEntity
8
0
100
AcDbCircle
10
-297.9102866951722
20
-81.243265068034788
30
0
40
0.85000000000000853
210
0
220
-0
230
1
0
CIRCLE
5
151
100
AcDbEntity
8
0
100
AcDbCircle
10
-379.75397926313462
20
-10.000000000000036
30
0
40
1.4999999999999858
210
0
220
0
230
1
0
LWPOLYLINE
5
152
100
AcDbEntity
8
0
100
AcDbPolyline
90
4
70
1
43
0.0
10
-371.33717068612378
20
-16.131939224178868
42
0.99999999999999989
10
-376.33717068612378
20
-16.131939224178868
10
-376.33717068612378
20
-31.131939224178868
42
0.99999999999999989
10
-371.33717068612378
20
-31.131939224178868
0
CIRCLE
5
153
100
AcDbEntity
8
0
100
AcDbCircle
10
-379.75397926313462
20
-238.82314037332418
30
0
40
1.4999999999999858
210
0
220
0
230
1
0
CIRCLE
5
154
100
AcDbEntity
8
0
100
AcDbCircle
10
-183.19006100183412
20
-182.45152880603604
30
0
40
1.7743563837924015
210
0
220
-0
230
1
0
CIRCLE
5
155
100
AcDbEntity
8
0
100
AcDbCircle
10
-169.19528322621403
20
-19.93695019191458
30
0
40
1.5500000000000114
210
0
220
-0
230
1
0
CIRCLE
5
156
100
AcDbEntity
8
0
100
AcDbCircle
10
-233.35882678550081
20
-167.05319475362356
30
0
40
1.7385215865627046
210
0
220
-0
230
1
0
CIRCLE
5
157
100
AcDbEntity
8
0
100
AcDbCircle
10
-233.35882678550081
20
-139.20136933624144
30
0
40
1.7740016189415186
210
0
220
-0
230
1
0
CIRCLE
5
158
100
AcDbEntity
8
0
100
AcDbCircle
10
-183.19006100183412
20
-123.80303528382888
30
0
40
1.7743563837924015
210
0
220
-0
230
1
0
ENDSEC
0
SECTION
2
OBJECTS
0
DICTIONARY
5
C
100
AcDbDictionary
3
ACAD_GROUP
350
D
3
ACAD_MLINESTYLE
350
17
0
DICTIONARY
5
D
100
AcDbDictionary
0
DICTIONARY
5
1A
330
C
100
AcDbDictionary
0
DICTIONARY
5
17
100
AcDbDictionary
0
ENDSEC
0
EOF
