0
SECTION
2
HEADER
9
$INSUNITS
70
4
9
$ACADVER
1
AC1014
9
$HANDSEED
5
FFFF
0
ENDSEC
0
SECTION
2
TABLES
0
TABLE
2
VPORT
5
8
100
AcDbSymbolTable
0
ENDTAB
0
TABLE
2
LTYPE
5
5
100
AcDbSymbolTable
0
LTYPE
5
14
100
AcDbSymbolTableRecord
100
AcDbLinetypeTableRecord
2
BYBLOCK
70
0
0
LTYPE
5
15
100
AcDbSymbolTableRecord
100
AcDbLinetypeTableRecord
2
BYLAYER
70
0
0
LTYPE
5
16
100
AcDbSymbolTableRecord
100
AcDbLinetypeTableRecord
2
DASHED
70
0
3
Dashed __ __ __ __ __ __ __ __ __ __ __ __ __ _
72
65
73
2
40
0.75
49
0.5
74
0
49
-0.25
74
0
0
ENDTAB
0
TABLE
2
LAYER
5
2
100
AcDbSymbolTable
70
2
0
LAYER
5
50
100
AcDbSymbolTableRecord
100
AcDbLayerTableRecord
2
0
70
0
62
7
6
CONTINUOUS
0
ENDTAB
0
TABLE
2
STYLE
5
3
100
AcDbSymbolTable
70
1
0
STYLE
5
11
100
AcDbSymbolTableRecord
100
AcDbTextStyleTableRecord
2
STANDARD
70
0
0
ENDTAB
0
TABLE
2
VIEW
5
6
100
AcDbSymbolTable
70
0
0
ENDTAB
0
TABLE
2
UCS
5
7
100
AcDbSymbolTable
70
0
0
ENDTAB
0
TABLE
2
APPID
5
9
100
AcDbSymbolTable
70
2
0
APPID
5
12
100
AcDbSymbolTableRecord
100
AcDbRegAppTableRecord
2
ACAD
70
0
0
ENDTAB
0
TABLE
2
DIMSTYLE
5
A
100
AcDbSymbolTable
70
1
0
ENDTAB
0
TABLE
2
BLOCK_RECORD
5
1
100
AcDbSymbolTable
70
1
0
BLOCK_RECORD
5
1F
100
AcDbSymbolTableRecord
100
AcDbBlockTableRecord
2
*MODEL_SPACE
0
BLOCK_RECORD
5
1B
100
AcDbSymbolTableRecord
100
AcDbBlockTableRecord
2
*PAPER_SPACE
0
ENDTAB
0
ENDSEC
0
SECTION
2
BLOCKS
0
BLOCK
5
20
100
AcDbEntity
100
AcDbBlockBegin
2
*MODEL_SPACE
0
ENDBLK
5
21
100
AcDbEntity
100
AcDbBlockEnd
0
BLOCK
5
1C
100
AcDbEntity
100
AcDbBlockBegin
2
*PAPER_SPACE
0
ENDBLK
5
1D
100
AcDbEntity
100
AcDbBlockEnd
0
ENDSEC
0
SECTION
2
ENTITIES
0
POINT
5
100
100
AcDbEntity
8
0
100
AcDbPoint
10
0
20
0
30
0
0
LWPOLYLINE
5
101
100
AcDbEntity
8
0
100
AcDbPolyline
90
4
70
1
43
0.0
10
42.589795263817251
20
-154.56029640151002
10
42.589795263817251
20
-169.56029640151002
42
-0.99999999999999989
10
37.589795263817251
20
-169.56029640151002
10
37.589795263817251
20
-154.56029640151002
42
-0.99999999999999989
0
LWPOLYLINE
5
102
100
AcDbEntity
8
0
100
AcDbPolyline
90
4
70
1
43
0.0
10
82.589795263817223
20
-34.560296401510008
10
82.589795263817223
20
-49.560296401510001
42
-0.99999999999999989
10
77.589795263817223
20
-49.560296401510001
10
77.589795263817223
20
-34.560296401510008
42
-0.99999999999999989
0
LWPOLYLINE
5
103
100
AcDbEntity
8
0
100
AcDbPolyline
90
4
70
1
43
0.0
10
62.589795263817209
20
-14.560296401509998
10
62.589795263817209
20
-29.560296401509998
42
-0.99999999999999989
10
57.589795263817209
20
-29.560296401509998
10
57.589795263817209
20
-14.560296401509998
42
-0.99999999999999989
0
LWPOLYLINE
5
104
100
AcDbEntity
8
0
100
AcDbPolyline
90
4
70
1
43
0.0
10
282.58979526381728
20
-74.560296401510016
10
282.58979526381728
20
-89.560296401510001
42
-0.99999999999999989
10
277.58979526381728
20
-89.560296401510001
10
277.58979526381728
20
-74.560296401510016
42
-0.99999999999999989
0
LWPOLYLINE
5
105
100
AcDbEntity
8
0
100
AcDbPolyline
90
4
70
1
43
0.0
10
262.58979526381722
20
-134.56029640150999
42
0.99999999999999989
10
257.58979526381722
20
-134.56029640150999
10
257.58979526381722
20
-149.56029640150999
42
0.99999999999999989
10
262.58979526381722
20
-149.56029640150999
0
LWPOLYLINE
5
106
100
AcDbEntity
8
0
100
AcDbPolyline
90
4
70
1
43
0.0
10
237.58979526381722
20
-169.56029640151002
42
0.99999999999999989
10
242.58979526381722
20
-169.56029640151002
10
242.58979526381722
20
-154.56029640151002
42
0.99999999999999989
10
237.58979526381722
20
-154.56029640151002
0
LWPOLYLINE
5
107
100
AcDbEntity
8
0
100
AcDbPolyline
90
4
70
1
43
0.0
10
282.58979526381728
20
-114.56029640151002
10
282.58979526381728
20
-129.56029640150999
42
-0.99999999999999989
10
277.58979526381728
20
-129.56029640150999
10
277.58979526381728
20
-114.56029640151002
42
-0.99999999999999989
0
LWPOLYLINE
5
108
100
AcDbEntity
8
0
100
AcDbPolyline
90
4
70
1
43
0.0
10
137.58979526381719
20
-29.560296401509998
10
137.58979526381719
20
-14.560296401509998
42
-0.99999999999999989
10
142.58979526381719
20
-14.560296401509998
10
142.58979526381719
20
-29.560296401509998
42
-0.99999999999999989
0
LWPOLYLINE
5
109
100
AcDbEntity
8
0
100
AcDbPolyline
90
4
70
1
43
0.0
10
22.589795263817205
20
-54.560296401510001
42
0.99999999999999989
10
17.589795263817205
20
-54.560296401510001
10
17.589795263817205
20
-69.560296401510001
42
0.99999999999999989
10
22.589795263817205
20
-69.560296401510001
0
LWPOLYLINE
5
110
100
AcDbEntity
8
0
100
AcDbPolyline
90
4
70
1
43
0.0
10
217.58979526381722
20
-189.56029640151002
10
217.58979526381722
20
-174.56029640151002
42
-0.99999999999999989
10
222.58979526381722
20
-174.56029640151002
10
222.58979526381722
20
-189.56029640151002
42
-0.99999999999999989
0
LWPOLYLINE
5
111
100
AcDbEntity
8
0
100
AcDbPolyline
90
4
70
1
43
0.0
10
22.589795263817205
20
-174.56029640151002
42
0.99999999999999989
10
17.589795263817205
20
-174.56029640151002
10
17.589795263817205
20
-189.56029640151002
42
0.99999999999999989
10
22.589795263817205
20
-189.56029640151002
0
LWPOLYLINE
5
112
100
AcDbEntity
8
0
100
AcDbPolyline
90
4
70
1
43
0.0
10
297.58979526381722
20
-189.56029640151002
10
297.58979526381722
20
-174.56029640151002
42
-0.99999999999999989
10
302.58979526381722
20
-174.56029640151002
10
302.58979526381722
20
-189.56029640151002
42
-0.99999999999999989
0
LWPOLYLINE
5
113
100
AcDbEntity
8
0
100
AcDbPolyline
90
4
70
1
43
0.0
10
137.58979526381719
20
-229.56029640151002
10
137.58979526381719
20
-214.56029640151002
42
-0.99999999999999989
10
142.58979526381719
20
-214.56029640151002
10
142.58979526381719
20
-229.56029640151002
42
-0.99999999999999989
0
LWPOLYLINE
5
114
100
AcDbEntity
8
0
100
AcDbPolyline
90
4
70
1
43
0.0
10
122.58979526381725
20
-194.56029640151002
10
122.58979526381725
20
-209.56029640151002
42
-0.99999999999999989
10
117.58979526381725
20
-209.56029640151002
10
117.58979526381725
20
-194.56029640151002
42
-0.99999999999999989
0
LWPOLYLINE
5
115
100
AcDbEntity
8
0
100
AcDbPolyline
90
4
70
1
43
0.0
10
182.58979526381722
20
-214.56029640151002
42
0.99999999999999989
10
177.58979526381722
20
-214.56029640151002
10
177.58979526381722
20
-229.56029640151002
42
0.99999999999999989
10
182.58979526381722
20
-229.56029640151002
0
LWPOLYLINE
5
116
100
AcDbEntity
8
0
100
AcDbPolyline
90
4
70
1
43
0.0
10
22.589795263817205
20
-214.56029640151002
42
0.99999999999999989
10
17.589795263817205
20
-214.56029640151002
10
17.589795263817205
20
-229.56029640151002
42
0.99999999999999989
10
22.589795263817205
20
-229.56029640151002
0
LWPOLYLINE
5
117
100
AcDbEntity
8
0
100
AcDbPolyline
90
4
70
1
43
0.0
10
282.58979526381728
20
-154.56029640151002
10
282.58979526381728
20
-169.56029640151002
42
-0.99999999999999989
10
277.58979526381728
20
-169.56029640151002
10
277.58979526381728
20
-154.56029640151002
42
-0.99999999999999989
0
LWPOLYLINE
5
118
100
AcDbEntity
8
0
100
AcDbPolyline
90
4
70
1
43
0.0
10
157.58979526381722
20
-169.56029640151002
42
0.99999999999999989
10
162.58979526381722
20
-169.56029640151002
10
162.58979526381722
20
-154.56029640151002
42
0.99999999999999989
10
157.58979526381722
20
-154.56029640151002
0
LWPOLYLINE
5
119
100
AcDbEntity
8
0
100
AcDbPolyline
90
4
70
1
43
0.0
10
297.58979526381722
20
-29.560296401509998
10
297.58979526381722
20
-14.560296401509998
42
-0.99999999999999989
10
302.58979526381722
20
-14.560296401509998
10
302.58979526381722
20
-29.560296401509998
42
-0.99999999999999989
0
LWPOLYLINE
5
120
100
AcDbEntity
8
0
100
AcDbPolyline
90
4
70
1
43
0.0
10
77.589795263817223
20
-129.56029640150999
42
0.99999999999999989
10
82.589795263817223
20
-129.56029640150999
10
82.589795263817223
20
-114.56029640151002
42
0.99999999999999989
10
77.589795263817223
20
-114.56029640151002
0
LWPOLYLINE
5
121
100
AcDbEntity
8
0
100
AcDbPolyline
90
4
70
1
43
0.0
10
42.589795263817251
20
-114.56029640151002
10
42.589795263817251
20
-129.56029640150999
42
-0.99999999999999989
10
37.589795263817251
20
-129.56029640150999
10
37.589795263817251
20
-114.56029640151002
42
-0.99999999999999989
0
LWPOLYLINE
5
122
100
AcDbEntity
8
0
100
AcDbPolyline
90
4
70
1
43
0.0
10
57.589795263817209
20
-109.56029640151
10
57.589795263817209
20
-94.560296401510001
42
-0.99999999999999989
10
62.589795263817209
20
-94.560296401510001
10
62.589795263817209
20
-109.56029640151
42
-0.99999999999999989
0
LWPOLYLINE
5
123
100
AcDbEntity
8
0
100
AcDbPolyline
90
4
70
1
43
0.0
10
122.58979526381725
20
-114.56029640151002
10
122.58979526381725
20
-129.56029640150999
42
-0.99999999999999989
10
117.58979526381725
20
-129.56029640150999
10
117.58979526381725
20
-114.56029640151002
42
-0.99999999999999989
0
LWPOLYLINE
5
124
100
AcDbEntity
8
0
100
AcDbPolyline
90
4
70
1
43
0.0
10
137.58979526381719
20
-69.560296401510001
10
137.58979526381719
20
-54.560296401510001
42
-0.99999999999999989
10
142.58979526381719
20
-54.560296401510001
10
142.58979526381719
20
-69.560296401510001
42
-0.99999999999999989
0
LWPOLYLINE
5
125
100
AcDbEntity
8
0
100
AcDbPolyline
90
4
70
1
43
0.0
10
122.58979526381725
20
-74.560296401510016
10
122.58979526381725
20
-89.560296401510001
42
-0.99999999999999989
10
117.58979526381725
20
-89.560296401510001
10
117.58979526381725
20
-74.560296401510016
42
-0.99999999999999989
0
LWPOLYLINE
5
126
100
AcDbEntity
8
0
100
AcDbPolyline
90
4
70
1
43
0.0
10
157.58979526381722
20
-129.56029640150999
42
0.99999999999999989
10
162.58979526381722
20
-129.56029640150999
10
162.58979526381722
20
-114.56029640151002
42
0.99999999999999989
10
157.58979526381722
20
-114.56029640151002
0
LWPOLYLINE
5
127
100
AcDbEntity
8
0
100
AcDbPolyline
90
4
70
1
43
0.0
10
282.58979526381728
20
-34.560296401510008
10
282.58979526381728
20
-49.560296401510001
42
-0.99999999999999989
10
277.58979526381728
20
-49.560296401510001
10
277.58979526381728
20
-34.560296401510008
42
-0.99999999999999989
0
LWPOLYLINE
5
128
100
AcDbEntity
8
0
100
AcDbPolyline
90
4
70
1
43
0.0
10
377.58979526381722
20
-149.56029640150999
10
377.58979526381722
20
-134.56029640150999
42
-0.99999999999999989
10
382.58979526381722
20
-134.56029640150999
10
382.58979526381722
20
-149.56029640150999
42
-0.99999999999999989
0
LWPOLYLINE
5
129
100
AcDbEntity
8
0
100
AcDbPolyline
90
4
70
1
43
0.0
10
317.58979526381722
20
-169.56029640151002
42
0.99999999999999989
10
322.58979526381722
20
-169.56029640151002
10
322.58979526381722
20
-154.56029640151002
42
0.99999999999999989
10
317.58979526381722
20
-154.56029640151002
0
LWPOLYLINE
5
130
100
AcDbEntity
8
0
100
AcDbPolyline
90
4
70
1
43
0.0
10
317.58979526381722
20
-209.56029640151002
42
0.99999999999999989
10
322.58979526381722
20
-209.56029640151002
10
322.58979526381722
20
-194.56029640151002
42
0.99999999999999989
10
317.58979526381722
20
-194.56029640151002
0
LWPOLYLINE
5
131
100
AcDbEntity
8
0
100
AcDbPolyline
90
4
70
1
43
0.0
10
157.58979526381722
20
-209.56029640151002
42
0.99999999999999989
10
162.58979526381722
20
-209.56029640151002
10
162.58979526381722
20
-194.56029640151002
42
0.99999999999999989
10
157.58979526381722
20
-194.56029640151002
0
LWPOLYLINE
5
132
100
AcDbEntity
8
0
100
AcDbPolyline
90
4
70
1
43
0.0
10
282.58979526381728
20
-194.56029640151002
10
282.58979526381728
20
-209.56029640151002
42
-0.99999999999999989
10
277.58979526381728
20
-209.56029640151002
10
277.58979526381728
20
-194.56029640151002
42
-0.99999999999999989
0
LWPOLYLINE
5
133
100
AcDbEntity
8
0
100
AcDbPolyline
90
4
70
1
43
0.0
10
57.589795263817209
20
-229.56029640151002
10
57.589795263817209
20
-214.56029640151002
42
-0.99999999999999989
10
62.589795263817209
20
-214.56029640151002
10
62.589795263817209
20
-229.56029640151002
42
-0.99999999999999989
0
LWPOLYLINE
5
134
100
AcDbEntity
8
0
100
AcDbPolyline
90
4
70
1
43
0.0
10
297.58979526381722
20
-229.56029640151002
10
297.58979526381722
20
-214.56029640151002
42
-0.99999999999999989
10
302.58979526381722
20
-214.56029640151002
10
302.58979526381722
20
-229.56029640151002
42
-0.99999999999999989
0
LWPOLYLINE
5
135
100
AcDbEntity
8
0
100
AcDbPolyline
90
4
70
1
43
0.0
10
137.58979526381719
20
-189.56029640151002
10
137.58979526381719
20
-174.56029640151002
42
-0.99999999999999989
10
142.58979526381719
20
-174.56029640151002
10
142.58979526381719
20
-189.56029640151002
42
-0.99999999999999989
0
LWPOLYLINE
5
136
100
AcDbEntity
8
0
100
AcDbPolyline
90
4
70
1
43
0.0
10
362.58979526381722
20
-154.56029640151002
10
362.58979526381722
20
-169.56029640151002
42
-0.99999999999999989
10
357.58979526381722
20
-169.56029640151002
10
357.58979526381722
20
-154.56029640151002
42
-0.99999999999999989
0
LWPOLYLINE
5
137
100
AcDbEntity
8
0
100
AcDbPolyline
90
4
70
1
43
0.0
10
57.589795263817209
20
-189.56029640151002
10
57.589795263817209
20
-174.56029640151002
42
-0.99999999999999989
10
62.589795263817209
20
-174.56029640151002
10
62.589795263817209
20
-189.56029640151002
42
-0.99999999999999989
0
LWPOLYLINE
5
138
100
AcDbEntity
8
0
100
AcDbPolyline
90
4
70
1
43
0.0
10
157.58979526381722
20
-49.560296401510001
42
0.99999999999999989
10
162.58979526381722
20
-49.560296401510001
10
162.58979526381722
20
-34.560296401510008
42
0.99999999999999989
10
157.58979526381722
20
-34.560296401510008
0
LWPOLYLINE
5
139
100
AcDbEntity
8
0
100
AcDbPolyline
90
4
70
1
43
0.0
10
42.589795263817251
20
-34.560296401510008
42
0.99999999999999989
10
37.589795263817251
20
-34.560296401510008
10
37.589795263817251
20
-49.560296401510001
42
0.99999999999999989
10
42.589795263817251
20
-49.560296401510001
0
LWPOLYLINE
5
140
100
AcDbEntity
8
0
100
AcDbPolyline
90
4
70
1
43
0.0
10
57.589795263817209
20
-69.560296401510001
10
57.589795263817209
20
-54.560296401510001
42
-0.99999999999999989
10
62.589795263817209
20
-54.560296401510001
10
62.589795263817209
20
-69.560296401510001
42
-0.99999999999999989
0
LWPOLYLINE
5
141
100
AcDbEntity
8
0
100
AcDbPolyline
90
4
70
1
43
0.0
10
297.58979526381722
20
-69.560296401510001
10
297.58979526381722
20
-54.560296401510001
42
-0.99999999999999989
10
302.58979526381722
20
-54.560296401510001
10
302.58979526381722
20
-69.560296401510001
42
-0.99999999999999989
0
LWPOLYLINE
5
142
100
AcDbEntity
8
0
100
AcDbPolyline
90
4
70
1
43
0.0
10
342.58979526381722
20
-54.560296401510001
42
0.99999999999999989
10
337.58979526381722
20
-54.560296401510001
10
337.58979526381722
20
-69.560296401510001
42
0.99999999999999989
10
342.58979526381722
20
-69.560296401510001
0
LWPOLYLINE
5
143
100
AcDbEntity
8
0
100
AcDbPolyline
90
4
70
1
43
0.0
10
22.589795263817205
20
-134.56029640150999
42
0.99999999999999989
10
17.589795263817205
20
-134.56029640150999
10
17.589795263817205
20
-149.56029640150999
42
0.99999999999999989
10
22.589795263817205
20
-149.56029640150999
0
LWPOLYLINE
5
144
100
AcDbEntity
8
0
100
AcDbPolyline
90
4
70
1
43
0.0
10
77.589795263817223
20
-169.56029640151002
42
0.99999999999999989
10
82.589795263817223
20
-169.56029640151002
10
82.589795263817223
20
-154.56029640151002
42
0.99999999999999989
10
77.589795263817223
20
-154.56029640151002
0
LWPOLYLINE
5
145
100
AcDbEntity
8
0
100
AcDbPolyline
90
4
70
1
43
0.0
10
237.58979526381722
20
-129.56029640150999
42
0.99999999999999989
10
242.58979526381722
20
-129.56029640150999
10
242.58979526381722
20
-114.56029640151002
42
0.99999999999999989
10
237.58979526381722
20
-114.56029640151002
0
LWPOLYLINE
5
146
100
AcDbEntity
8
0
100
AcDbPolyline
90
4
70
1
43
0.0
10
217.58979526381722
20
-149.56029640150999
10
217.58979526381722
20
-134.56029640150999
42
-0.99999999999999989
10
222.58979526381722
20
-134.56029640150999
10
222.58979526381722
20
-149.56029640150999
42
-0.99999999999999989
0
LWPOLYLINE
5
147
100
AcDbEntity
8
0
100
AcDbPolyline
90
4
70
1
43
0.0
10
202.58979526381725
20
-114.56029640151002
10
202.58979526381725
20
-129.56029640150999
42
-0.99999999999999989
10
197.58979526381725
20
-129.56029640150999
10
197.58979526381725
20
-114.56029640151002
42
-0.99999999999999989
0
LWPOLYLINE
5
148
100
AcDbEntity
8
0
100
AcDbPolyline
90
4
70
1
43
0.0
10
377.58979526381722
20
-69.560296401510001
10
377.58979526381722
20
-54.560296401510001
42
-0.99999999999999989
10
382.58979526381722
20
-54.560296401510001
10
382.58979526381722
20
-69.560296401510001
42
-0.99999999999999989
0
LWPOLYLINE
5
149
100
AcDbEntity
8
0
100
AcDbPolyline
90
4
70
1
43
0.0
10
297.58979526381722
20
-109.56029640151
10
297.58979526381722
20
-94.560296401510001
42
-0.99999999999999989
10
302.58979526381722
20
-94.560296401510001
10
302.58979526381722
20
-109.56029640151
42
-0.99999999999999989
0
LWPOLYLINE
5
150
100
AcDbEntity
8
0
100
AcDbPolyline
90
4
70
1
43
0.0
10
297.58979526381722
20
-149.56029640150999
10
297.58979526381722
20
-134.56029640150999
42
-0.99999999999999989
10
302.58979526381722
20
-134.56029640150999
10
302.58979526381722
20
-149.56029640150999
42
-0.99999999999999989
0
LWPOLYLINE
5
151
100
AcDbEntity
8
0
100
AcDbPolyline
90
4
70
1
43
0.0
10
362.58979526381722
20
-34.560296401510008
10
362.58979526381722
20
-49.560296401510001
42
-0.99999999999999989
10
357.58979526381722
20
-49.560296401510001
10
357.58979526381722
20
-34.560296401510008
42
-0.99999999999999989
0
LWPOLYLINE
5
152
100
AcDbEntity
8
0
100
AcDbPolyline
90
4
70
1
43
0.0
10
102.58979526381721
20
-134.56029640150999
42
0.99999999999999989
10
97.589795263817209
20
-134.56029640150999
10
97.589795263817209
20
-149.56029640150999
42
0.99999999999999989
10
102.58979526381721
20
-149.56029640150999
0
LWPOLYLINE
5
153
100
AcDbEntity
8
0
100
AcDbPolyline
90
4
70
1
43
0.0
10
342.58979526381722
20
-94.560296401510001
42
0.99999999999999989
10
337.58979526381722
20
-94.560296401510001
10
337.58979526381722
20
-109.56029640151
42
0.99999999999999989
10
342.58979526381722
20
-109.56029640151
0
LWPOLYLINE
5
154
100
AcDbEntity
8
0
100
AcDbPolyline
90
4
70
1
43
0.0
10
362.58979526381722
20
-114.56029640151002
10
362.58979526381722
20
-129.56029640150999
42
-0.99999999999999989
10
357.58979526381722
20
-129.56029640150999
10
357.58979526381722
20
-114.56029640151002
42
-0.99999999999999989
0
LWPOLYLINE
5
155
100
AcDbEntity
8
0
100
AcDbPolyline
90
4
70
1
43
0.0
10
102.58979526381721
20
-14.560296401509998
42
0.99999999999999989
10
97.589795263817209
20
-14.560296401509998
10
97.589795263817209
20
-29.560296401509998
42
0.99999999999999989
10
102.58979526381721
20
-29.560296401509998
0
LWPOLYLINE
5
156
100
AcDbEntity
8
0
100
AcDbPolyline
90
4
70
1
43
0.0
10
102.58979526381721
20
-174.56029640151002
42
0.99999999999999989
10
97.589795263817209
20
-174.56029640151002
10
97.589795263817209
20
-189.56029640151002
42
0.99999999999999989
10
102.58979526381721
20
-189.56029640151002
0
LWPOLYLINE
5
157
100
AcDbEntity
8
0
100
AcDbPolyline
90
4
70
1
43
0.0
10
42.589795263817251
20
-194.56029640151002
10
42.589795263817251
20
-209.56029640151002
42
-0.99999999999999989
10
37.589795263817251
20
-209.56029640151002
10
37.589795263817251
20
-194.56029640151002
42
-0.99999999999999989
0
LWPOLYLINE
5
158
100
AcDbEntity
8
0
100
AcDbPolyline
90
4
70
1
43
0.0
10
202.58979526381725
20
-194.56029640151002
10
202.58979526381725
20
-209.56029640151002
42
-0.99999999999999989
10
197.58979526381725
20
-209.56029640151002
10
197.58979526381725
20
-194.56029640151002
42
-0.99999999999999989
0
LWPOLYLINE
5
159
100
AcDbEntity
8
0
100
AcDbPolyline
90
4
70
1
43
0.0
10
377.58979526381722
20
-229.56029640151002
10
377.58979526381722
20
-214.56029640151002
42
-0.99999999999999989
10
382.58979526381722
20
-214.56029640151002
10
382.58979526381722
20
-229.56029640151002
42
-0.99999999999999989
0
LWPOLYLINE
5
160
100
AcDbEntity
8
0
100
AcDbPolyline
90
4
70
1
43
0.0
10
362.58979526381722
20
-194.56029640151002
10
362.58979526381722
20
-209.56029640151002
42
-0.99999999999999989
10
357.58979526381722
20
-209.56029640151002
10
357.58979526381722
20
-194.56029640151002
42
-0.99999999999999989
0
LWPOLYLINE
5
161
100
AcDbEntity
8
0
100
AcDbPolyline
90
4
70
1
43
0.0
10
217.58979526381722
20
-229.56029640151002
10
217.58979526381722
20
-214.56029640151002
42
-0.99999999999999989
10
222.58979526381722
20
-214.56029640151002
10
222.58979526381722
20
-229.56029640151002
42
-0.99999999999999989
0
LWPOLYLINE
5
162
100
AcDbEntity
8
0
100
AcDbPolyline
90
4
70
1
43
0.0
10
102.58979526381721
20
-214.56029640151002
42
0.99999999999999989
10
97.589795263817209
20
-214.56029640151002
10
97.589795263817209
20
-229.56029640151002
42
0.99999999999999989
10
102.58979526381721
20
-229.56029640151002
0
LWPOLYLINE
5
163
100
AcDbEntity
8
0
100
AcDbPolyline
90
4
70
1
43
0.0
10
342.58979526381722
20
-14.560296401509998
42
0.99999999999999989
10
337.58979526381722
20
-14.560296401509998
10
337.58979526381722
20
-29.560296401509998
42
0.99999999999999989
10
342.58979526381722
20
-29.560296401509998
0
LWPOLYLINE
5
164
100
AcDbEntity
8
0
100
AcDbPolyline
90
4
70
1
43
0.0
10
182.58979526381722
20
-134.56029640150999
42
0.99999999999999989
10
177.58979526381722
20
-134.56029640150999
10
177.58979526381722
20
-149.56029640150999
42
0.99999999999999989
10
182.58979526381722
20
-149.56029640150999
0
LWPOLYLINE
5
165
100
AcDbEntity
8
0
100
AcDbPolyline
90
4
70
1
43
0.0
10
317.58979526381722
20
-49.560296401510001
42
0.99999999999999989
10
322.58979526381722
20
-49.560296401510001
10
322.58979526381722
20
-34.560296401510008
42
0.99999999999999989
10
317.58979526381722
20
-34.560296401510008
0
LWPOLYLINE
5
166
100
AcDbEntity
8
0
100
AcDbPolyline
90
4
70
1
43
0.0
10
22.589795263817205
20
-94.560296401510001
42
0.99999999999999989
10
17.589795263817205
20
-94.560296401510001
10
17.589795263817205
20
-109.56029640151
42
0.99999999999999989
10
22.589795263817205
20
-109.56029640151
0
LWPOLYLINE
5
167
100
AcDbEntity
8
0
100
AcDbPolyline
90
4
70
1
43
0.0
10
42.589795263817251
20
-74.560296401510016
10
42.589795263817251
20
-89.560296401510001
42
-0.99999999999999989
10
37.589795263817251
20
-89.560296401510001
10
37.589795263817251
20
-74.560296401510016
42
-0.99999999999999989
0
LWPOLYLINE
5
168
100
AcDbEntity
8
0
100
AcDbPolyline
90
4
70
1
43
0.0
10
102.58979526381721
20
-94.560296401510001
42
0.99999999999999989
10
97.589795263817209
20
-94.560296401510001
10
97.589795263817209
20
-109.56029640151
42
0.99999999999999989
10
102.58979526381721
20
-109.56029640151
0
LWPOLYLINE
5
169
100
AcDbEntity
8
0
100
AcDbPolyline
90
4
70
1
43
0.0
10
17.589795263817205
20
-29.560296401509998
10
17.589795263817205
20
-14.560296401509998
42
-0.99999999999999989
10
22.589795263817205
20
-14.560296401510007
10
22.589795263817205
20
-29.560296401509998
42
-0.99999999999999989
0
LWPOLYLINE
5
170
100
AcDbEntity
8
0
100
AcDbPolyline
90
4
70
1
43
0.0
10
137.58979526381719
20
-109.56029640151
10
137.58979526381719
20
-94.560296401510001
42
-0.99999999999999989
10
142.58979526381719
20
-94.560296401510001
10
142.58979526381719
20
-109.56029640151
42
-0.99999999999999989
0
LWPOLYLINE
5
171
100
AcDbEntity
8
0
100
AcDbPolyline
90
4
70
1
43
0.0
10
157.58979526381722
20
-89.560296401510001
42
0.99999999999999989
10
162.58979526381722
20
-89.560296401510001
10
162.58979526381722
20
-74.560296401510001
42
0.99999999999999989
10
157.58979526381722
20
-74.560296401510001
0
LWPOLYLINE
5
172
100
AcDbEntity
8
0
100
AcDbPolyline
90
4
70
1
43
0.0
10
102.58979526381721
20
-54.560296401510001
42
0.99999999999999989
10
97.589795263817209
20
-54.560296401510001
10
97.589795263817209
20
-69.560296401510001
42
0.99999999999999989
10
102.58979526381721
20
-69.560296401510001
0
LWPOLYLINE
5
173
100
AcDbEntity
8
0
100
AcDbPolyline
90
4
70
1
43
0.0
10
122.58979526381725
20
-154.56029640151002
10
122.58979526381725
20
-169.56029640151002
42
-0.99999999999999989
10
117.58979526381725
20
-169.56029640151002
10
117.58979526381725
20
-154.56029640151002
42
-0.99999999999999989
0
LWPOLYLINE
5
174
100
AcDbEntity
8
0
100
AcDbPolyline
90
4
70
1
43
0.0
10
342.58979526381722
20
-134.56029640150999
42
0.99999999999999989
10
337.58979526381722
20
-134.56029640150999
10
337.58979526381722
20
-149.56029640150999
42
0.99999999999999989
10
342.58979526381722
20
-149.56029640150999
0
LWPOLYLINE
5
175
100
AcDbEntity
8
0
100
AcDbPolyline
90
4
70
1
43
0.0
10
377.58979526381722
20
-29.560296401509998
10
377.58979526381722
20
-14.560296401509998
42
-0.99999999999999989
10
382.58979526381722
20
-14.560296401509998
10
382.58979526381722
20
-29.560296401509998
42
-0.99999999999999989
0
LWPOLYLINE
5
176
100
AcDbEntity
8
0
100
AcDbPolyline
90
4
70
1
43
0.0
10
342.58979526381722
20
-174.56029640151002
42
0.99999999999999989
10
337.58979526381722
20
-174.56029640151002
10
337.58979526381722
20
-189.56029640151002
42
0.99999999999999989
10
342.58979526381722
20
-189.56029640151002
0
LWPOLYLINE
5
177
100
AcDbEntity
8
0
100
AcDbPolyline
90
4
70
1
43
0.0
10
377.58979526381722
20
-189.56029640151002
10
377.58979526381722
20
-174.56029640151002
42
-0.99999999999999989
10
382.58979526381722
20
-174.56029640151002
10
382.58979526381722
20
-189.56029640151002
42
-0.99999999999999989
0
LWPOLYLINE
5
178
100
AcDbEntity
8
0
100
AcDbPolyline
90
4
70
1
43
0.0
10
182.58979526381722
20
-174.56029640151002
42
0.99999999999999989
10
177.58979526381722
20
-174.56029640151002
10
177.58979526381722
20
-189.56029640151002
42
0.99999999999999989
10
182.58979526381722
20
-189.56029640151002
0
LWPOLYLINE
5
179
100
AcDbEntity
8
0
100
AcDbPolyline
90
4
70
1
43
0.0
10
342.58979526381722
20
-214.56029640151002
42
0.99999999999999989
10
337.58979526381722
20
-214.56029640151002
10
337.58979526381722
20
-229.56029640151002
42
0.99999999999999989
10
342.58979526381722
20
-229.56029640151002
0
LWPOLYLINE
5
180
100
AcDbEntity
8
0
100
AcDbPolyline
90
4
70
1
43
0.0
10
262.58979526381722
20
-214.56029640151002
42
0.99999999999999989
10
257.58979526381722
20
-214.56029640151002
10
257.58979526381722
20
-229.56029640151002
42
0.99999999999999989
10
262.58979526381722
20
-229.56029640151002
0
LWPOLYLINE
5
181
100
AcDbEntity
8
0
100
AcDbPolyline
90
4
70
1
43
0.0
10
237.58979526381722
20
-209.56029640151002
42
0.99999999999999989
10
242.58979526381722
20
-209.56029640151002
10
242.58979526381722
20
-194.56029640151002
42
0.99999999999999989
10
237.58979526381722
20
-194.56029640151002
0
LWPOLYLINE
5
182
100
AcDbEntity
8
0
100
AcDbPolyline
90
4
70
1
43
0.0
10
262.58979526381722
20
-174.56029640151002
42
0.99999999999999989
10
257.58979526381722
20
-174.56029640151002
10
257.58979526381722
20
-189.56029640151002
42
0.99999999999999989
10
262.58979526381722
20
-189.56029640151002
0
LWPOLYLINE
5
183
100
AcDbEntity
8
0
100
AcDbPolyline
90
4
70
1
43
0.0
10
77.589795263817223
20
-209.56029640151002
42
0.99999999999999989
10
82.589795263817223
20
-209.56029640151002
10
82.589795263817223
20
-194.56029640151002
42
0.99999999999999989
10
77.589795263817223
20
-194.56029640151002
0
LWPOLYLINE
5
184
100
AcDbEntity
8
0
100
AcDbPolyline
90
4
70
1
43
0.0
10
77.589795263817223
20
-89.560296401510001
42
0.99999999999999989
10
82.589795263817223
20
-89.560296401510001
10
82.589795263817223
20
-74.560296401510001
42
0.99999999999999989
10
77.589795263817223
20
-74.560296401510001
0
LWPOLYLINE
5
185
100
AcDbEntity
8
0
100
AcDbPolyline
90
4
70
1
43
0.0
10
122.58979526381725
20
-34.560296401510008
10
122.58979526381725
20
-49.560296401510001
42
-0.99999999999999989
10
117.58979526381725
20
-49.560296401510001
10
117.58979526381725
20
-34.560296401510008
42
-0.99999999999999989
0
LWPOLYLINE
5
186
100
AcDbEntity
8
0
100
AcDbPolyline
90
4
70
1
43
0.0
10
377.58979526381722
20
-109.56029640151
10
377.58979526381722
20
-94.560296401510001
42
-0.99999999999999989
10
382.58979526381722
20
-94.560296401510001
10
382.58979526381722
20
-109.56029640151
42
-0.99999999999999989
0
LWPOLYLINE
5
187
100
AcDbEntity
8
0
100
AcDbPolyline
90
4
70
1
43
0.0
10
137.58979526381719
20
-149.56029640150999
10
137.58979526381719
20
-134.56029640150999
42
-0.99999999999999989
10
142.58979526381719
20
-134.56029640150999
10
142.58979526381719
20
-149.56029640150999
42
-0.99999999999999989
0
LWPOLYLINE
5
188
100
AcDbEntity
8
0
100
AcDbPolyline
90
4
70
1
43
0.0
10
202.58979526381725
20
-154.56029640151002
10
202.58979526381725
20
-169.56029640151002
42
-0.99999999999999989
10
197.58979526381725
20
-169.56029640151002
10
197.58979526381725
20
-154.56029640151002
42
-0.99999999999999989
0
LWPOLYLINE
5
189
100
AcDbEntity
8
0
100
AcDbPolyline
90
4
70
1
43
0.0
10
317.58979526381722
20
-89.560296401510001
42
0.99999999999999989
10
322.58979526381722
20
-89.560296401510001
10
322.58979526381722
20
-74.560296401510001
42
0.99999999999999989
10
317.58979526381722
20
-74.560296401510001
0
LWPOLYLINE
5
190
100
AcDbEntity
8
0
100
AcDbPolyline
90
4
70
1
43
0.0
10
57.589795263817209
20
-149.56029640150999
10
57.589795263817209
20
-134.56029640150999
42
-0.99999999999999989
10
62.589795263817209
20
-134.56029640150999
10
62.589795263817209
20
-149.56029640150999
42
-0.99999999999999989
0
LWPOLYLINE
5
191
100
AcDbEntity
8
0
100
AcDbPolyline
90
4
70
1
43
0.0
10
362.58979526381722
20
-74.560296401510016
10
362.58979526381722
20
-89.560296401510001
42
-0.99999999999999989
10
357.58979526381722
20
-89.560296401510001
10
357.58979526381722
20
-74.560296401510016
42
-0.99999999999999989
0
LWPOLYLINE
5
192
100
AcDbEntity
8
0
100
AcDbPolyline
90
4
70
1
43
0.0
10
317.58979526381722
20
-129.56029640150999
42
0.99999999999999989
10
322.58979526381722
20
-129.56029640150999
10
322.58979526381722
20
-114.56029640151002
42
0.99999999999999989
10
317.58979526381722
20
-114.56029640151002
0
LWPOLYLINE
5
193
100
AcDbEntity
8
0
100
AcDbPolyline
90
8
70
1
43
0.0
10
9.9999999999999982
20
-1.1102230246251565e-15
42
0.4142135623730957
10
1.1102230246251565e-15
20
-10.000000000000002
10
-1.3322676295501878e-14
20
-230
42
0.41421356237309293
10
9.9999999999999982
20
-240
10
390
20
-239.99999999999997
42
0.41421356237309609
10
400.00000000000006
20
-230
10
400
20
-10
42
0.41421356237309398
10
390
20
-3.5527136788005009e-14
0
LWPOLYLINE
5
194
100
AcDbEntity
8
0
100
AcDbPolyline
90
4
70
1
43
0.0
10
117.58979526381725
20
-169.56029640151002
42
0.99999999999999989
10
122.58979526381725
20
-169.56029640151002
10
122.58979526381725
20
-154.56029640151002
42
0.99999999999999989
10
117.58979526381725
20
-154.56029640151002
0
LWPOLYLINE
5
195
100
AcDbEntity
8
0
100
AcDbPolyline
90
4
70
1
43
0.0
10
77.589795263817223
20
-49.560296401510001
10
77.589795263817223
20
-34.560296401510008
42
-0.99999999999999989
10
82.589795263817223
20
-34.560296401510008
10
82.589795263817223
20
-49.560296401510001
42
-0.99999999999999989
0
LWPOLYLINE
5
196
100
AcDbEntity
8
0
100
AcDbPolyline
90
4
70
1
43
0.0
10
162.58979526381722
20
-194.56029640151002
42
0.99999999999999989
10
157.58979526381722
20
-194.56029640151002
10
157.58979526381722
20
-209.56029640151002
42
0.99999999999999989
10
162.58979526381722
20
-209.56029640151002
0
LWPOLYLINE
5
197
100
AcDbEntity
8
0
100
AcDbPolyline
90
4
70
1
43
0.0
10
102.58979526381721
20
-174.56029640151002
10
102.58979526381721
20
-189.56029640151002
42
-0.99999999999999989
10
97.589795263817209
20
-189.56029640151002
10
97.589795263817209
20
-174.56029640151002
42
-0.99999999999999989
0
LWPOLYLINE
5
198
100
AcDbEntity
8
0
100
AcDbPolyline
90
4
70
1
43
0.0
10
57.589795263817209
20
-229.56029640151002
10
57.589795263817209
20
-214.56029640151002
42
-0.99999999999999989
10
62.589795263817209
20
-214.56029640151002
10
62.589795263817209
20
-229.56029640151002
42
-0.99999999999999989
0
LWPOLYLINE
5
199
100
AcDbEntity
8
0
100
AcDbPolyline
90
4
70
1
43
0.0
10
237.58979526381722
20
-129.56029640150999
10
237.58979526381722
20
-114.56029640151002
42
-0.99999999999999989
10
242.58979526381722
20
-114.56029640151002
10
242.58979526381722
20
-129.56029640150999
42
-0.99999999999999989
0
LWPOLYLINE
5
200
100
AcDbEntity
8
0
100
AcDbPolyline
90
4
70
1
43
0.0
10
57.589795263817209
20
-189.56029640151002
10
57.589795263817209
20
-174.56029640151002
42
-0.99999999999999989
10
62.589795263817209
20
-174.56029640151002
10
62.589795263817209
20
-189.56029640151002
42
-0.99999999999999989
0
LWPOLYLINE
5
201
100
AcDbEntity
8
0
100
AcDbPolyline
90
4
70
1
43
0.0
10
342.58979526381722
20
-14.560296401509998
10
342.58979526381722
20
-29.560296401509998
42
-0.99999999999999989
10
337.58979526381722
20
-29.560296401509998
10
337.58979526381722
20
-14.560296401509998
42
-0.99999999999999989
0
LWPOLYLINE
5
202
100
AcDbEntity
8
0
100
AcDbPolyline
90
4
70
1
43
0.0
10
97.589795263817209
20
-229.56029640151002
10
97.589795263817209
20
-214.56029640151002
42
-0.99999999999999989
10
102.58979526381721
20
-214.56029640151002
10
102.58979526381721
20
-229.56029640151002
42
-0.99999999999999989
0
LWPOLYLINE
5
203
100
AcDbEntity
8
0
100
AcDbPolyline
90
4
70
1
43
0.0
10
57.589795263817209
20
-29.560296401509998
10
57.589795263817209
20
-14.560296401509998
42
-0.99999999999999989
10
62.589795263817209
20
-14.560296401509998
10
62.589795263817209
20
-29.560296401509998
42
-0.99999999999999989
0
LWPOLYLINE
5
204
100
AcDbEntity
8
0
100
AcDbPolyline
90
4
70
1
43
0.0
10
17.589795263817205
20
-189.56029640151002
10
17.589795263817205
20
-174.56029640151002
42
-0.99999999999999989
10
22.589795263817205
20
-174.56029640151002
10
22.589795263817205
20
-189.56029640151002
42
-0.99999999999999989
0
LWPOLYLINE
5
205
100
AcDbEntity
8
0
100
AcDbPolyline
90
4
70
1
43
0.0
10
82.589795263817223
20
-154.56029640151002
10
82.589795263817223
20
-169.56029640151002
42
-0.99999999999999989
10
77.589795263817223
20
-169.56029640151002
10
77.589795263817223
20
-154.56029640151002
42
-0.99999999999999989
0
LWPOLYLINE
5
206
100
AcDbEntity
8
0
100
AcDbPolyline
90
4
70
1
43
0.0
10
177.58979526381722
20
-189.56029640151002
10
177.58979526381722
20
-174.56029640151002
42
-0.99999999999999989
10
182.58979526381722
20
-174.56029640151002
10
182.58979526381722
20
-189.56029640151002
42
-0.99999999999999989
0
LWPOLYLINE
5
207
100
AcDbEntity
8
0
100
AcDbPolyline
90
4
70
1
43
0.0
10
177.58979526381722
20
-149.56029640150999
42
0.99999999999999989
10
182.58979526381722
20
-149.56029640150999
10
182.58979526381722
20
-134.56029640150999
42
0.99999999999999989
10
177.58979526381722
20
-134.56029640150999
0
LWPOLYLINE
5
208
100
AcDbEntity
8
0
100
AcDbPolyline
90
4
70
1
43
0.0
10
102.58979526381721
20
-14.560296401509998
42
0.99999999999999989
10
97.589795263817209
20
-14.560296401509998
10
97.589795263817209
20
-29.560296401509998
42
0.99999999999999989
10
102.58979526381721
20
-29.560296401509998
0
LWPOLYLINE
5
209
100
AcDbEntity
8
0
100
AcDbPolyline
90
4
70
1
43
0.0
10
122.58979526381725
20
-34.560296401510008
10
122.58979526381725
20
-49.560296401510001
42
-0.99999999999999989
10
117.58979526381725
20
-49.560296401510001
10
117.58979526381725
20
-34.560296401510008
42
-0.99999999999999989
0
LWPOLYLINE
5
210
100
AcDbEntity
8
0
100
AcDbPolyline
90
4
70
1
43
0.0
10
217.58979526381722
20
-149.56029640150999
10
217.58979526381722
20
-134.56029640150999
42
-0.99999999999999989
10
222.58979526381722
20
-134.56029640150999
10
222.58979526381722
20
-149.56029640150999
42
-0.99999999999999989
0
LWPOLYLINE
5
211
100
AcDbEntity
8
0
100
AcDbPolyline
90
4
70
1
43
0.0
10
137.58979526381719
20
-149.56029640150999
10
137.58979526381719
20
-134.56029640150999
42
-0.99999999999999989
10
142.58979526381719
20
-134.56029640150999
10
142.58979526381719
20
-149.56029640150999
42
-0.99999999999999989
0
LWPOLYLINE
5
212
100
AcDbEntity
8
0
100
AcDbPolyline
90
4
70
1
43
0.0
10
117.58979526381725
20
-209.56029640151002
10
117.58979526381725
20
-194.56029640151002
42
-0.99999999999999989
10
122.58979526381725
20
-194.56029640151002
10
122.58979526381725
20
-209.56029640151002
42
-0.99999999999999989
0
LWPOLYLINE
5
213
100
AcDbEntity
8
0
100
AcDbPolyline
90
4
70
1
43
0.0
10
102.58979526381721
20
-54.560296401510001
10
102.58979526381721
20
-69.560296401510001
42
-0.99999999999999989
10
97.589795263817209
20
-69.560296401510001
10
97.589795263817209
20
-54.560296401510001
42
-0.99999999999999989
0
LWPOLYLINE
5
214
100
AcDbEntity
8
0
100
AcDbPolyline
90
4
70
1
43
0.0
10
137.58979526381719
20
-189.56029640151002
42
0.99999999999999989
10
142.58979526381719
20
-189.56029640151002
10
142.58979526381719
20
-174.56029640151002
42
0.99999999999999989
10
137.58979526381719
20
-174.56029640151002
0
LWPOLYLINE
5
215
100
AcDbEntity
8
0
100
AcDbPolyline
90
4
70
1
43
0.0
10
202.58979526381725
20
-154.56029640151002
10
202.58979526381725
20
-169.56029640151002
42
-0.99999999999999989
10
197.58979526381725
20
-169.56029640151002
10
197.58979526381725
20
-154.56029640151002
42
-0.99999999999999989
0
LWPOLYLINE
5
216
100
AcDbEntity
8
0
100
AcDbPolyline
90
4
70
1
43
0.0
10
157.58979526381722
20
-169.56029640151002
42
0.99999999999999989
10
162.58979526381722
20
-169.56029640151002
10
162.58979526381722
20
-154.56029640151002
42
0.99999999999999989
10
157.58979526381722
20
-154.56029640151002
0
LWPOLYLINE
5
217
100
AcDbEntity
8
0
100
AcDbPolyline
90
4
70
1
43
0.0
10
17.589795263817205
20
-229.56029640151002
10
17.589795263817205
20
-214.56029640151002
42
-0.99999999999999989
10
22.589795263817205
20
-214.56029640151002
10
22.589795263817205
20
-229.56029640151002
42
-0.99999999999999989
0
LWPOLYLINE
5
218
100
AcDbEntity
8
0
100
AcDbPolyline
90
4
70
1
43
0.0
10
57.589795263817209
20
-69.560296401510001
10
57.589795263817209
20
-54.560296401510001
42
-0.99999999999999989
10
62.589795263817209
20
-54.560296401510001
10
62.589795263817209
20
-69.560296401510001
42
-0.99999999999999989
0
LWPOLYLINE
5
219
100
AcDbEntity
8
0
100
AcDbPolyline
90
4
70
1
43
0.0
10
57.589795263817209
20
-149.56029640150999
10
57.589795263817209
20
-134.56029640150999
42
-0.99999999999999989
10
62.589795263817209
20
-134.56029640150999
10
62.589795263817209
20
-149.56029640150999
42
-0.99999999999999989
0
LWPOLYLINE
5
220
100
AcDbEntity
8
0
100
AcDbPolyline
90
4
70
1
43
0.0
10
97.589795263817209
20
-149.56029640150999
10
97.589795263817209
20
-134.56029640150999
42
-0.99999999999999989
10
102.58979526381721
20
-134.56029640150999
10
102.58979526381721
20
-149.56029640150999
42
-0.99999999999999989
0
LWPOLYLINE
5
221
100
AcDbEntity
8
0
100
AcDbPolyline
90
4
70
1
43
0.0
10
157.58979526381722
20
-129.56029640150999
42
0.99999999999999989
10
162.58979526381722
20
-129.56029640150999
10
162.58979526381722
20
-114.56029640151002
42
0.99999999999999989
10
157.58979526381722
20
-114.56029640151002
0
LWPOLYLINE
5
222
100
AcDbEntity
8
0
100
AcDbPolyline
90
4
70
1
43
0.0
10
42.589795263817251
20
-154.56029640151002
10
42.589795263817251
20
-169.56029640151002
42
-0.99999999999999989
10
37.589795263817251
20
-169.56029640151002
10
37.589795263817251
20
-154.56029640151002
42
-0.99999999999999989
0
LWPOLYLINE
5
223
100
AcDbEntity
8
0
100
AcDbPolyline
90
4
70
1
43
0.0
10
22.589795263817205
20
-54.560296401510001
10
22.589795263817205
20
-69.560296401510001
42
-0.99999999999999989
10
17.589795263817205
20
-69.560296401510001
10
17.589795263817205
20
-54.560296401510001
42
-0.99999999999999989
0
LWPOLYLINE
5
224
100
AcDbEntity
8
0
100
AcDbPolyline
90
4
70
1
43
0.0
10
297.58979526381722
20
-29.560296401509998
42
0.99999999999999989
10
302.58979526381722
20
-29.560296401509998
10
302.58979526381722
20
-14.560296401509998
42
0.99999999999999989
10
297.58979526381722
20
-14.560296401509998
0
LWPOLYLINE
5
225
100
AcDbEntity
8
0
100
AcDbPolyline
90
4
70
1
43
0.0
10
277.58979526381728
20
-49.560296401510001
42
0.99999999999999989
10
282.58979526381728
20
-49.560296401510001
10
282.58979526381728
20
-34.560296401510008
42
0.99999999999999989
10
277.58979526381728
20
-34.560296401510008
0
LWPOLYLINE
5
226
100
AcDbEntity
8
0
100
AcDbPolyline
90
4
70
1
43
0.0
10
162.58979526381722
20
-34.560296401510008
10
162.58979526381722
20
-49.560296401510001
42
-0.99999999999999989
10
157.58979526381722
20
-49.560296401510001
10
157.58979526381722
20
-34.560296401510008
42
-0.99999999999999989
0
LWPOLYLINE
5
227
100
AcDbEntity
8
0
100
AcDbPolyline
90
4
70
1
43
0.0
10
142.58979526381719
20
-14.560296401509998
42
0.99999999999999989
10
137.58979526381719
20
-14.560296401509998
10
137.58979526381719
20
-29.560296401509998
42
0.99999999999999989
10
142.58979526381719
20
-29.560296401509998
0
LWPOLYLINE
5
228
100
AcDbEntity
8
0
100
AcDbPolyline
90
4
70
1
43
0.0
10
177.58979526381722
20
-229.56029640151002
10
177.58979526381722
20
-214.56029640151002
42
-0.99999999999999989
10
182.58979526381722
20
-214.56029640151002
10
182.58979526381722
20
-229.56029640151002
42
-0.99999999999999989
0
LWPOLYLINE
5
229
100
AcDbEntity
8
0
100
AcDbPolyline
90
4
70
1
43
0.0
10
362.58979526381722
20
-34.560296401510008
10
362.58979526381722
20
-49.560296401510001
42
-0.99999999999999989
10
357.58979526381722
20
-49.560296401510001
10
357.58979526381722
20
-34.560296401510008
42
-0.99999999999999989
0
LWPOLYLINE
5
230
100
AcDbEntity
8
0
100
AcDbPolyline
90
4
70
1
43
0.0
10
82.589795263817223
20
-114.56029640151002
10
82.589795263817223
20
-129.56029640150999
42
-0.99999999999999989
10
77.589795263817223
20
-129.56029640150999
10
77.589795263817223
20
-114.56029640151002
42
-0.99999999999999989
0
LWPOLYLINE
5
231
100
AcDbEntity
8
0
100
AcDbPolyline
90
4
70
1
43
0.0
10
242.58979526381722
20
-154.56029640151002
10
242.58979526381722
20
-169.56029640151002
42
-0.99999999999999989
10
237.58979526381722
20
-169.56029640151002
10
237.58979526381722
20
-154.56029640151002
42
-0.99999999999999989
0
LWPOLYLINE
5
232
100
AcDbEntity
8
0
100
AcDbPolyline
90
4
70
1
43
0.0
10
142.58979526381719
20
-54.560296401510001
42
0.99999999999999989
10
137.58979526381719
20
-54.560296401510001
10
137.58979526381719
20
-69.560296401510001
42
0.99999999999999989
10
142.58979526381719
20
-69.560296401510001
0
LWPOLYLINE
5
233
100
AcDbEntity
8
0
100
AcDbPolyline
90
4
70
1
43
0.0
10
302.58979526381722
20
-54.560296401510001
42
0.99999999999999989
10
297.58979526381722
20
-54.560296401510001
10
297.58979526381722
20
-69.560296401510001
42
0.99999999999999989
10
302.58979526381722
20
-69.560296401510001
0
LWPOLYLINE
5
234
100
AcDbEntity
8
0
100
AcDbPolyline
90
4
70
1
43
0.0
10
57.589795263817209
20
-109.56029640151
10
57.589795263817209
20
-94.560296401510001
42
-0.99999999999999989
10
62.589795263817209
20
-94.560296401510001
10
62.589795263817209
20
-109.56029640151
42
-0.99999999999999989
0
LWPOLYLINE
5
235
100
AcDbEntity
8
0
100
AcDbPolyline
90
4
70
1
43
0.0
10
197.58979526381725
20
-129.56029640150999
10
197.58979526381725
20
-114.56029640151002
42
-0.99999999999999989
10
202.58979526381725
20
-114.56029640151002
10
202.58979526381725
20
-129.56029640150999
42
-0.99999999999999989
0
LWPOLYLINE
5
236
100
AcDbEntity
8
0
100
AcDbPolyline
90
4
70
1
43
0.0
10
342.58979526381722
20
-54.560296401510001
10
342.58979526381722
20
-69.560296401510001
42
-0.99999999999999989
10
337.58979526381722
20
-69.560296401510001
10
337.58979526381722
20
-54.560296401510001
42
-0.99999999999999989
0
LWPOLYLINE
5
237
100
AcDbEntity
8
0
100
AcDbPolyline
90
4
70
1
43
0.0
10
262.58979526381722
20
-214.56029640151002
42
0.99999999999999989
10
257.58979526381722
20
-214.56029640151002
10
257.58979526381722
20
-229.56029640151002
42
0.99999999999999989
10
262.58979526381722
20
-229.56029640151002
0
LWPOLYLINE
5
238
100
AcDbEntity
8
0
100
AcDbPolyline
90
4
70
1
43
0.0
10
162.58979526381722
20
-74.560296401510001
42
0.99999999999999989
10
157.58979526381722
20
-74.560296401510001
10
157.58979526381722
20
-89.560296401510001
42
0.99999999999999989
10
162.58979526381722
20
-89.560296401510001
0
LWPOLYLINE
5
239
100
AcDbEntity
8
0
100
AcDbPolyline
90
4
70
1
43
0.0
10
237.58979526381722
20
-209.56029640151002
42
0.99999999999999989
10
242.58979526381722
20
-209.56029640151002
10
242.58979526381722
20
-194.56029640151002
42
0.99999999999999989
10
237.58979526381722
20
-194.56029640151002
0
ARC
5
240
100
AcDbEntity
8
0
100
AcDbCircle
10
390.00000000000006
20
-229.99999999999997
30
0
40
10
210
0
220
0
230
1
100
AcDbArc
50
269.99999999999972
51
360
0
LWPOLYLINE
5
241
100
AcDbEntity
8
0
100
AcDbPolyline
90
4
70
1
43
0.0
10
277.58979526381728
20
-209.56029640151002
42
0.99999999999999989
10
282.58979526381728
20
-209.56029640151002
10
282.58979526381728
20
-194.56029640151002
42
0.99999999999999989
10
277.58979526381728
20
-194.56029640151002
0
LWPOLYLINE
5
242
100
AcDbEntity
8
0
100
AcDbPolyline
90
4
70
1
43
0.0
10
377.58979526381722
20
-189.56029640151002
42
0.99999999999999989
10
382.58979526381722
20
-189.56029640151002
10
382.58979526381722
20
-174.56029640151002
42
0.99999999999999989
10
377.58979526381722
20
-174.56029640151002
0
LWPOLYLINE
5
243
100
AcDbEntity
8
0
100
AcDbPolyline
90
4
70
1
43
0.0
10
142.58979526381719
20
-94.560296401510001
10
142.58979526381719
20
-109.56029640151
42
-0.99999999999999989
10
137.58979526381719
20
-109.56029640151
10
137.58979526381719
20
-94.560296401510001
42
-0.99999999999999989
0
LWPOLYLINE
5
244
100
AcDbEntity
8
0
100
AcDbPolyline
90
4
70
1
43
0.0
10
382.58979526381722
20
-134.56029640150999
10
382.58979526381722
20
-149.56029640150999
42
-0.99999999999999989
10
377.58979526381722
20
-149.56029640150999
10
377.58979526381722
20
-134.56029640150999
42
-0.99999999999999989
0
LWPOLYLINE
5
245
100
AcDbEntity
8
0
100
AcDbPolyline
90
4
70
1
43
0.0
10
317.58979526381722
20
-209.56029640151002
10
317.58979526381722
20
-194.56029640151002
42
-0.99999999999999989
10
322.58979526381722
20
-194.56029640151002
10
322.58979526381722
20
-209.56029640151002
42
-0.99999999999999989
0
LWPOLYLINE
5
246
100
AcDbEntity
8
0
100
AcDbPolyline
90
4
70
1
43
0.0
10
357.58979526381722
20
-169.56029640151002
42
0.99999999999999989
10
362.58979526381722
20
-169.56029640151002
10
362.58979526381722
20
-154.56029640151002
42
0.99999999999999989
10
357.58979526381722
20
-154.56029640151002
0
LWPOLYLINE
5
247
100
AcDbEntity
8
0
100
AcDbPolyline
90
4
70
1
43
0.0
10
342.58979526381722
20
-174.56029640151002
42
0.99999999999999989
10
337.58979526381722
20
-174.56029640151002
10
337.58979526381722
20
-189.56029640151002
42
0.99999999999999989
10
342.58979526381722
20
-189.56029640151002
0
LWPOLYLINE
5
248
100
AcDbEntity
8
0
100
AcDbPolyline
90
4
70
1
43
0.0
10
377.58979526381722
20
-229.56029640151002
10
377.58979526381722
20
-214.56029640151002
42
-0.99999999999999989
10
382.58979526381722
20
-214.56029640151002
10
382.58979526381722
20
-229.56029640151002
42
-0.99999999999999989
0
LWPOLYLINE
5
249
100
AcDbEntity
8
0
100
AcDbPolyline
90
4
70
1
43
0.0
10
342.58979526381722
20
-214.56029640151002
42
0.99999999999999989
10
337.58979526381722
20
-214.56029640151002
10
337.58979526381722
20
-229.56029640151002
42
0.99999999999999989
10
342.58979526381722
20
-229.56029640151002
0
LWPOLYLINE
5
250
100
AcDbEntity
8
0
100
AcDbPolyline
90
4
70
1
43
0.0
10
217.58979526381722
20
-229.56029640151002
10
217.58979526381722
20
-214.56029640151002
42
-0.99999999999999989
10
222.58979526381722
20
-214.56029640151002
10
222.58979526381722
20
-229.56029640151002
42
-0.99999999999999989
0
LWPOLYLINE
5
251
100
AcDbEntity
8
0
100
AcDbPolyline
90
4
70
1
43
0.0
10
382.58979526381722
20
-94.560296401510001
10
382.58979526381722
20
-109.56029640151
42
-0.99999999999999989
10
377.58979526381722
20
-109.56029640151
10
377.58979526381722
20
-94.560296401510001
42
-0.99999999999999989
0
LWPOLYLINE
5
252
100
AcDbEntity
8
0
100
AcDbPolyline
90
4
70
1
43
0.0
10
97.589795263817209
20
-109.56029640151
42
0.99999999999999989
10
102.58979526381721
20
-109.56029640151
10
102.58979526381721
20
-94.560296401510001
42
0.99999999999999989
10
97.589795263817209
20
-94.560296401510001
0
LWPOLYLINE
5
253
100
AcDbEntity
8
0
100
AcDbPolyline
90
4
70
1
43
0.0
10
197.58979526381725
20
-209.56029640151002
10
197.58979526381725
20
-194.56029640151002
42
-0.99999999999999989
10
202.58979526381725
20
-194.56029640151002
10
202.58979526381725
20
-209.56029640151002
42
-0.99999999999999989
0
LWPOLYLINE
5
254
100
AcDbEntity
8
0
100
AcDbPolyline
90
4
70
1
43
0.0
10
282.58979526381728
20
-114.56029640151002
42
0.99999999999999989
10
277.58979526381728
20
-114.56029640151002
10
277.58979526381728
20
-129.56029640150999
42
0.99999999999999989
10
282.58979526381728
20
-129.56029640150999
0
LWPOLYLINE
5
255
100
AcDbEntity
8
0
100
AcDbPolyline
90
4
70
1
43
0.0
10
42.589795263817251
20
-74.560296401510016
10
42.589795263817251
20
-89.560296401510001
42
-0.99999999999999989
10
37.589795263817251
20
-89.560296401510001
10
37.589795263817251
20
-74.560296401510016
42
-0.99999999999999989
0
LWPOLYLINE
5
256
100
AcDbEntity
8
0
100
AcDbPolyline
90
4
70
1
43
0.0
10
362.58979526381722
20
-74.560296401510016
10
362.58979526381722
20
-89.560296401510001
42
-0.99999999999999989
10
357.58979526381722
20
-89.560296401510001
10
357.58979526381722
20
-74.560296401510016
42
-0.99999999999999989
0
LWPOLYLINE
5
257
100
AcDbEntity
8
0
100
AcDbPolyline
90
4
70
1
43
0.0
10
302.58979526381722
20
-94.560296401510001
42
0.99999999999999989
10
297.58979526381722
20
-94.560296401510001
10
297.58979526381722
20
-109.56029640151
42
0.99999999999999989
10
302.58979526381722
20
-109.56029640151
0
LWPOLYLINE
5
258
100
AcDbEntity
8
0
100
AcDbPolyline
90
4
70
1
43
0.0
10
337.58979526381722
20
-149.56029640150999
42
0.99999999999999989
10
342.58979526381722
20
-149.56029640150999
10
342.58979526381722
20
-134.56029640150999
42
0.99999999999999989
10
337.58979526381722
20
-134.56029640150999
0
LWPOLYLINE
5
259
100
AcDbEntity
8
0
100
AcDbPolyline
90
4
70
1
43
0.0
10
357.58979526381722
20
-129.56029640150999
42
0.99999999999999989
10
362.58979526381722
20
-129.56029640150999
10
362.58979526381722
20
-114.56029640151002
42
0.99999999999999989
10
357.58979526381722
20
-114.56029640151002
0
LWPOLYLINE
5
260
100
AcDbEntity
8
0
100
AcDbPolyline
90
4
70
1
43
0.0
10
42.589795263817251
20
-194.56029640151002
10
42.589795263817251
20
-209.56029640151002
42
-0.99999999999999989
10
37.589795263817251
20
-209.56029640151002
10
37.589795263817251
20
-194.56029640151002
42
-0.99999999999999989
0
LWPOLYLINE
5
261
100
AcDbEntity
8
0
100
AcDbPolyline
90
4
70
1
43
0.0
10
317.58979526381722
20
-49.560296401510001
10
317.58979526381722
20
-34.560296401510008
42
-0.99999999999999989
10
322.58979526381722
20
-34.560296401510008
10
322.58979526381722
20
-49.560296401510001
42
-0.99999999999999989
0
LWPOLYLINE
5
262
100
AcDbEntity
8
0
100
AcDbPolyline
90
4
70
1
43
0.0
10
222.58979526381722
20
-174.56029640151002
42
0.99999999999999989
10
217.58979526381722
20
-174.56029640151002
10
217.58979526381722
20
-189.56029640151002
42
0.99999999999999989
10
222.58979526381722
20
-189.56029640151002
0
LWPOLYLINE
5
263
100
AcDbEntity
8
0
100
AcDbPolyline
90
4
70
1
43
0.0
10
77.589795263817223
20
-209.56029640151002
10
77.589795263817223
20
-194.56029640151002
42
-0.99999999999999989
10
82.589795263817223
20
-194.56029640151002
10
82.589795263817223
20
-209.56029640151002
42
-0.99999999999999989
0
LWPOLYLINE
5
264
100
AcDbEntity
8
0
100
AcDbPolyline
90
4
70
1
43
0.0
10
317.58979526381722
20
-169.56029640151002
10
317.58979526381722
20
-154.56029640151002
42
-0.99999999999999989
10
322.58979526381722
20
-154.56029640151002
10
322.58979526381722
20
-169.56029640151002
42
-0.99999999999999989
0
LWPOLYLINE
5
265
100
AcDbEntity
8
0
100
AcDbPolyline
90
4
70
1
43
0.0
10
382.58979526381722
20
-54.560296401510001
42
0.99999999999999989
10
377.58979526381722
20
-54.560296401510001
10
377.58979526381722
20
-69.560296401510001
42
0.99999999999999989
10
382.58979526381722
20
-69.560296401510001
0
LWPOLYLINE
5
266
100
AcDbEntity
8
0
100
AcDbPolyline
90
4
70
1
43
0.0
10
342.58979526381722
20
-94.560296401510001
10
342.58979526381722
20
-109.56029640151
42
-0.99999999999999989
10
337.58979526381722
20
-109.56029640151
10
337.58979526381722
20
-94.560296401510001
42
-0.99999999999999989
0
LWPOLYLINE
5
267
100
AcDbEntity
8
0
100
AcDbPolyline
90
4
70
1
43
0.0
10
137.58979526381719
20
-229.56029640151002
10
137.58979526381719
20
-214.56029640151002
42
-0.99999999999999989
10
142.58979526381719
20
-214.56029640151002
10
142.58979526381719
20
-229.56029640151002
42
-0.99999999999999989
0
LWPOLYLINE
5
268
100
AcDbEntity
8
0
100
AcDbPolyline
90
4
70
1
43
0.0
10
22.589795263817205
20
-134.56029640150999
10
22.589795263817205
20
-149.56029640150999
42
-0.99999999999999989
10
17.589795263817205
20
-149.56029640150999
10
17.589795263817205
20
-134.56029640150999
42
-0.99999999999999989
0
LWPOLYLINE
5
269
100
AcDbEntity
8
0
100
AcDbPolyline
90
4
70
1
43
0.0
10
17.589795263817205
20
-29.560296401509998
10
17.589795263817205
20
-14.560296401509998
42
-0.99999999999999989
10
22.589795263817205
20
-14.560296401510007
10
22.589795263817205
20
-29.560296401509998
42
-0.99999999999999989
0
LWPOLYLINE
5
270
100
AcDbEntity
8
0
100
AcDbPolyline
90
4
70
1
43
0.0
10
77.589795263817223
20
-89.560296401510001
10
77.589795263817223
20
-74.560296401510001
42
-0.99999999999999989
10
82.589795263817223
20
-74.560296401510001
10
82.589795263817223
20
-89.560296401510001
42
-0.99999999999999989
0
LWPOLYLINE
5
271
100
AcDbEntity
8
0
100
AcDbPolyline
90
4
70
1
43
0.0
10
122.58979526381725
20
-114.56029640151002
10
122.58979526381725
20
-129.56029640150999
42
-0.99999999999999989
10
117.58979526381725
20
-129.56029640150999
10
117.58979526381725
20
-114.56029640151002
42
-0.99999999999999989
0
LWPOLYLINE
5
272
100
AcDbEntity
8
0
100
AcDbPolyline
90
4
70
1
43
0.0
10
382.58979526381722
20
-14.560296401509998
42
0.99999999999999989
10
377.58979526381722
20
-14.560296401509998
10
377.58979526381722
20
-29.560296401509998
42
0.99999999999999989
10
382.58979526381722
20
-29.560296401509998
0
LWPOLYLINE
5
273
100
AcDbEntity
8
0
100
AcDbPolyline
90
4
70
1
43
0.0
10
317.58979526381722
20
-89.560296401510001
10
317.58979526381722
20
-74.560296401510001
42
-0.99999999999999989
10
322.58979526381722
20
-74.560296401510001
10
322.58979526381722
20
-89.560296401510001
42
-0.99999999999999989
0
LWPOLYLINE
5
274
100
AcDbEntity
8
0
100
AcDbPolyline
90
4
70
1
43
0.0
10
297.58979526381722
20
-149.56029640150999
10
297.58979526381722
20
-134.56029640150999
42
-0.99999999999999989
10
302.58979526381722
20
-134.56029640150999
10
302.58979526381722
20
-149.56029640150999
42
-0.99999999999999989
0
LWPOLYLINE
5
275
100
AcDbEntity
8
0
100
AcDbPolyline
90
4
70
1
43
0.0
10
262.58979526381722
20
-174.56029640151002
42
0.99999999999999989
10
257.58979526381722
20
-174.56029640151002
10
257.58979526381722
20
-189.56029640151002
42
0.99999999999999989
10
262.58979526381722
20
-189.56029640151002
0
LWPOLYLINE
5
276
100
AcDbEntity
8
0
100
AcDbPolyline
90
4
70
1
43
0.0
10
42.589795263817251
20
-34.560296401510008
10
42.589795263817251
20
-49.560296401510001
42
-0.99999999999999989
10
37.589795263817251
20
-49.560296401510001
10
37.589795263817251
20
-34.560296401510008
42
-0.99999999999999989
0
LWPOLYLINE
5
277
100
AcDbEntity
8
0
100
AcDbPolyline
90
4
70
1
43
0.0
10
297.58979526381722
20
-189.56029640151002
10
297.58979526381722
20
-174.56029640151002
42
-0.99999999999999989
10
302.58979526381722
20
-174.56029640151002
10
302.58979526381722
20
-189.56029640151002
42
-0.99999999999999989
0
ARC
5
278
100
AcDbEntity
8
0
100
AcDbCircle
10
9.9999999999999893
20
-9.9999999999999893
30
0
40
9.9999999999999876
210
0
220
-0
230
1
100
AcDbArc
50
89.999999999999943
51
180
0
LWPOLYLINE
5
279
100
AcDbEntity
8
0
100
AcDbPolyline
90
4
70
1
43
0.0
10
282.58979526381728
20
-154.56029640151002
42
0.99999999999999989
10
277.58979526381728
20
-154.56029640151002
10
277.58979526381728
20
-169.56029640151002
42
0.99999999999999989
10
282.58979526381728
20
-169.56029640151002
0
ARC
5
280
100
AcDbEntity
8
0
100
AcDbCircle
10
390
20
-10.000000000000036
30
0
40
10
210
0
220
-0
230
1
100
AcDbArc
50
0
51
90
0
LWPOLYLINE
5
281
100
AcDbEntity
8
0
100
AcDbPolyline
90
4
70
1
43
0.0
10
257.58979526381722
20
-149.56029640150999
42
0.99999999999999989
10
262.58979526381722
20
-149.56029640150999
10
262.58979526381722
20
-134.56029640150999
42
0.99999999999999989
10
257.58979526381722
20
-134.56029640150999
0
LWPOLYLINE
5
282
100
AcDbEntity
8
0
100
AcDbPolyline
90
4
70
1
43
0.0
10
282.58979526381728
20
-74.560296401510016
10
282.58979526381728
20
-89.560296401510001
42
-0.99999999999999989
10
277.58979526381728
20
-89.560296401510001
10
277.58979526381728
20
-74.560296401510016
42
-0.99999999999999989
0
LWPOLYLINE
5
283
100
AcDbEntity
8
0
100
AcDbPolyline
90
4
70
1
43
0.0
10
37.589795263817251
20
-129.56029640150999
42
0.99999999999999989
10
42.589795263817251
20
-129.56029640150999
10
42.589795263817251
20
-114.56029640151002
42
0.99999999999999989
10
37.589795263817251
20
-114.56029640151002
0
LWPOLYLINE
5
284
100
AcDbEntity
8
0
100
AcDbPolyline
90
4
70
1
43
0.0
10
122.58979526381725
20
-74.560296401510016
10
122.58979526381725
20
-89.560296401510001
42
-0.99999999999999989
10
117.58979526381725
20
-89.560296401510001
10
117.58979526381725
20
-74.560296401510016
42
-0.99999999999999989
0
LWPOLYLINE
5
285
100
AcDbEntity
8
0
100
AcDbPolyline
90
4
70
1
43
0.0
10
317.58979526381722
20
-129.56029640150999
10
317.58979526381722
20
-114.56029640151002
42
-0.99999999999999989
10
322.58979526381722
20
-114.56029640151002
10
322.58979526381722
20
-129.56029640150999
42
-0.99999999999999989
0
ARC
5
286
100
AcDbEntity
8
0
100
AcDbCircle
10
10.000000000000036
20
-229.99999999999997
30
0
40
10.00000000000005
210
0
220
0
230
1
100
AcDbArc
50
180
51
269.99999999999983
0
LWPOLYLINE
5
287
100
AcDbEntity
8
0
100
AcDbPolyline
90
4
70
1
43
0.0
10
17.589795263817205
20
-109.56029640151
42
0.99999999999999989
10
22.589795263817205
20
-109.56029640151
10
22.589795263817205
20
-94.560296401510001
42
0.99999999999999989
10
17.589795263817205
20
-94.560296401510001
0
LWPOLYLINE
5
288
100
AcDbEntity
8
0
100
AcDbPolyline
90
4
70
1
43
0.0
10
362.58979526381722
20
-194.56029640151002
10
362.58979526381722
20
-209.56029640151002
42
-0.99999999999999989
10
357.58979526381722
20
-209.56029640151002
10
357.58979526381722
20
-194.56029640151002
42
-0.99999999999999989
0
LWPOLYLINE
5
289
100
AcDbEntity
8
0
100
AcDbPolyline
90
4
70
1
43
0.0
10
297.58979526381722
20
-229.56029640151002
10
297.58979526381722
20
-214.56029640151002
42
-0.99999999999999989
10
302.58979526381722
20
-214.56029640151002
10
302.58979526381722
20
-229.56029640151002
42
-0.99999999999999989
0
ENDSEC
0
SECTION
2
OBJECTS
0
DICTIONARY
5
C
100
AcDbDictionary
3
ACAD_GROUP
350
D
3
ACAD_MLINESTYLE
350
17
0
DICTIONARY
5
D
100
AcDbDictionary
0
DICTIONARY
5
1A
330
C
100
AcDbDictionary
0
DICTIONARY
5
17
100
AcDbDictionary
0
ENDSEC
0
EOF
