0
SECTION
2
HEADER
9
$INSUNITS
70
4
9
$ACADVER
1
AC1014
9
$HANDSEED
5
FFFF
0
ENDSEC
0
SECTION
2
TABLES
0
TABLE
2
VPORT
5
8
100
AcDbSymbolTable
0
ENDTAB
0
TABLE
2
LTYPE
5
5
100
AcDbSymbolTable
0
LTYPE
5
14
100
AcDbSymbolTableRecord
100
AcDbLinetypeTableRecord
2
BYBLOCK
70
0
0
LTYPE
5
15
100
AcDbSymbolTableRecord
100
AcDbLinetypeTableRecord
2
BYLAYER
70
0
0
LTYPE
5
16
100
AcDbSymbolTableRecord
100
AcDbLinetypeTableRecord
2
DASHED
70
0
3
Dashed __ __ __ __ __ __ __ __ __ __ __ __ __ _
72
65
73
2
40
0.75
49
0.5
74
0
49
-0.25
74
0
0
ENDTAB
0
TABLE
2
LAYER
5
2
100
AcDbSymbolTable
70
2
0
LAYER
5
50
100
AcDbSymbolTableRecord
100
AcDbLayerTableRecord
2
0
70
0
62
7
6
CONTINUOUS
0
ENDTAB
0
TABLE
2
STYLE
5
3
100
AcDbSymbolTable
70
1
0
STYLE
5
11
100
AcDbSymbolTableRecord
100
AcDbTextStyleTableRecord
2
STANDARD
70
0
0
ENDTAB
0
TABLE
2
VIEW
5
6
100
AcDbSymbolTable
70
0
0
ENDTAB
0
TABLE
2
UCS
5
7
100
AcDbSymbolTable
70
0
0
ENDTAB
0
TABLE
2
APPID
5
9
100
AcDbSymbolTable
70
2
0
APPID
5
12
100
AcDbSymbolTableRecord
100
AcDbRegAppTableRecord
2
ACAD
70
0
0
ENDTAB
0
TABLE
2
DIMSTYLE
5
A
100
AcDbSymbolTable
70
1
0
ENDTAB
0
TABLE
2
BLOCK_RECORD
5
1
100
AcDbSymbolTable
70
1
0
BLOCK_RECORD
5
1F
100
AcDbSymbolTableRecord
100
AcDbBlockTableRecord
2
*MODEL_SPACE
0
BLOCK_RECORD
5
1B
100
AcDbSymbolTableRecord
100
AcDbBlockTableRecord
2
*PAPER_SPACE
0
ENDTAB
0
ENDSEC
0
SECTION
2
BLOCKS
0
BLOCK
5
20
100
AcDbEntity
100
AcDbBlockBegin
2
*MODEL_SPACE
0
ENDBLK
5
21
100
AcDbEntity
100
AcDbBlockEnd
0
BLOCK
5
1C
100
AcDbEntity
100
AcDbBlockBegin
2
*PAPER_SPACE
0
ENDBLK
5
1D
100
AcDbEntity
100
AcDbBlockEnd
0
ENDSEC
0
SECTION
2
ENTITIES
0
POINT
5
100
100
AcDbEntity
8
0
100
AcDbPoint
10
0
20
0
30
0
0
LWPOLYLINE
5
101
100
AcDbEntity
8
0
100
AcDbPolyline
90
4
70
1
43
0.0
10
-18.663006909759044
20
-174.96373833388841
10
-110.0633117023271
20
-174.96373833388841
10
-110.0633117023271
20
-151.19330243516708
10
-18.66300690975903
20
-151.19330243516708
0
LWPOLYLINE
5
102
100
AcDbEntity
8
0
100
AcDbPolyline
90
4
70
1
43
0.0
10
-26.695719286709291
20
-186.64500546741263
10
-26.695719286709306
20
-231.64500546741203
10
-196.69571928670729
20
-231.64500546741186
10
-196.6957192867072
20
-186.64500546741249
0
LWPOLYLINE
5
103
100
AcDbEntity
8
0
100
AcDbPolyline
90
4
70
1
43
0.0
10
-18.663006909759019
20
-115.86854111568073
10
-110.0633117023271
20
-115.86854111568073
10
-110.0633117023271
20
-93.687877031352102
10
-18.663006909759012
20
-93.687877031352102
0
CIRCLE
5
104
100
AcDbEntity
8
0
100
AcDbCircle
10
-244.19528322621403
20
-94.936950191914576
30
0
40
1.5500000000000114
210
0
220
-0
230
1
0
CIRCLE
5
105
100
AcDbEntity
8
0
100
AcDbCircle
10
-244.19528322621403
20
-19.93695019191458
30
0
40
1.5500000000000114
210
0
220
-0
230
1
0
CIRCLE
5
106
100
AcDbEntity
8
0
100
AcDbCircle
10
-169.19528322621403
20
-94.936950191914576
30
0
40
1.5500000000000114
210
0
220
-0
230
1
0
CIRCLE
5
107
100
AcDbEntity
8
0
100
AcDbCircle
10
-169.19528322621403
20
-19.93695019191458
30
0
40
1.5500000000000114
210
0
220
-0
230
1
0
LWPOLYLINE
5
108
100
AcDbEntity
8
0
100
AcDbPolyline
90
16
70
1
43
0.0
10
-234.3704593950813
20
-10
42
0.41421356237309326
10
-244.3704593950813
20
8.8817841970012523e-15
10
-379.75397926313462
20
0
42
0.41421356237309431
10
-389.75397926313462
20
-9.9999999999999982
10
-389.75397926313462
20
-238.82314037332421
42
0.41421356237309503
10
-379.75397926313462
20
-248.82314037332421
10
-10
20
-248.82314037332421
42
0.41421356237309398
10
1.3016204936146695e-28
20
-238.82314037332418
10
-1.1102230246251565e-15
20
-10
42
0.41421356237309559
10
-9.9999999999999982
20
-1.1102230246251345e-15
10
-169.02010705734739
20
0
42
0.41421356237309326
10
-179.02010705734739
20
-10
10
-179.02010705734739
20
-97.436950191914505
42
-0.41421356237309503
10
-189.02010705734739
20
-107.43695019191451
10
-224.3704593950813
20
-107.43695019191451
42
-0.41421356237309503
10
-234.3704593950813
20
-97.436950191914505
0
LWPOLYLINE
5
109
100
AcDbEntity
8
0
100
AcDbPolyline
90
8
70
1
43
0.0
10
-378.73416241966504
20
-114.04894935619831
10
-378.7341624196651
20
-90.048949356198321
42
-0.41421356237309503
10
-375.73416241966504
20
-87.048949356198321
10
-361.73416241966498
20
-87.048949356198349
42
-0.41421356237309503
10
-358.73416241966504
20
-90.048949356198321
10
-358.73416241966493
20
-114.04894935619831
42
-0.41421356237309503
10
-361.73416241966498
20
-117.04894935619832
10
-375.73416241966504
20
-117.04894935619828
42
-0.41421356237309503
0
LWPOLYLINE
5
110
100
AcDbEntity
8
0
100
AcDbPolyline
90
8
70
1
43
0.0
10
-346.41028669517226
20
-201.24326506803484
10
-346.41028669517226
20
-150.24326506803482
42
-0.41421356237309503
10
-344.4102866951722
20
-148.24326506803484
10
-336.41028669517226
20
-148.24326506803479
42
-0.41421356237309503
10
-334.4102866951722
20
-150.24326506803482
10
-334.4102866951722
20
-201.24326506803484
42
-0.41421356237309503
10
-336.41028669517226
20
-203.24326506803484
10
-344.4102866951722
20
-203.24326506803487
42
-0.41421356237309503
0
CIRCLE
5
111
100
AcDbEntity
8
0
100
AcDbCircle
10
-379.75397926313462
20
-10.000000000000021
30
0
40
1.4999999999999858
210
0
220
-0
230
1
0
CIRCLE
5
112
100
AcDbEntity
8
0
100
AcDbCircle
10
-10.000000000000036
20
-238.82314037332418
30
0
40
1.5000000000000058
210
0
220
-0
230
1
0
CIRCLE
5
113
100
AcDbEntity
8
0
100
AcDbCircle
10
-379.75397926313462
20
-238.82314037332421
30
0
40
1.4999999999999858
210
0
220
-0
230
1
0
CIRCLE
5
114
100
AcDbEntity
8
0
100
AcDbCircle
10
-9.9999999999999893
20
-9.9999999999999893
30
0
40
1.5000000000000013
210
0
220
-0
230
1
0
LWPOLYLINE
5
115
100
AcDbEntity
8
0
100
AcDbPolyline
90
4
70
1
43
0.0
10
-216.33717068612373
20
-231.13193922417889
10
-216.33717068612373
20
-216.13193922417889
42
-0.99999999999999989
10
-211.33717068612373
20
-216.13193922417889
10
-211.33717068612373
20
-231.13193922417889
42
-0.99999999999999989
0
LWPOLYLINE
5
116
100
AcDbEntity
8
0
100
AcDbPolyline
90
4
70
1
43
0.0
10
-16.337170686123716
20
-231.13193922417889
42
0.99999999999999989
10
-11.337170686123716
20
-231.13193922417889
10
-11.337170686123716
20
-216.13193922417889
42
0.99999999999999989
10
-16.337170686123716
20
-216.13193922417889
0
LWPOLYLINE
5
117
100
AcDbEntity
8
0
100
AcDbPolyline
90
4
70
1
43
0.0
10
-376.33717068612378
20
-231.13193922417889
10
-376.33717068612378
20
-216.13193922417889
42
-0.99999999999999989
10
-371.33717068612378
20
-216.13193922417889
10
-371.33717068612378
20
-231.13193922417889
42
-0.99999999999999989
0
LWPOLYLINE
5
118
100
AcDbEntity
8
0
100
AcDbPolyline
90
4
70
1
43
0.0
10
-216.33717068612373
20
-191.13193922417889
10
-216.33717068612373
20
-176.13193922417889
42
-0.99999999999999989
10
-211.33717068612373
20
-176.13193922417889
10
-211.33717068612373
20
-191.13193922417889
42
-0.99999999999999989
0
LWPOLYLINE
5
119
100
AcDbEntity
8
0
100
AcDbPolyline
90
4
70
1
43
0.0
10
-16.337170686123716
20
-31.131939224178868
10
-16.33717068612372
20
-16.131939224178872
42
-0.99999999999999989
10
-11.337170686123716
20
-16.131939224178868
10
-11.337170686123725
20
-31.131939224178879
42
-0.99999999999999989
0
LWPOLYLINE
5
120
100
AcDbEntity
8
0
100
AcDbPolyline
90
4
70
1
43
0.0
10
-376.33717068612378
20
-31.131939224178868
10
-376.33717068612378
20
-16.131939224178868
42
-0.99999999999999989
10
-371.33717068612378
20
-16.131939224178868
10
-371.33717068612378
20
-31.131939224178868
42
-0.99999999999999989
0
CIRCLE
5
121
100
AcDbEntity
8
0
100
AcDbCircle
10
-9.9999999999999893
20
-9.9999999999999893
30
0
40
1.5000000000000013
210
0
220
-0
230
1
0
CIRCLE
5
122
100
AcDbEntity
8
0
100
AcDbCircle
10
-169.19528322621403
20
-19.93695019191458
30
0
40
1.5500000000000114
210
0
220
-0
230
1
0
LWPOLYLINE
5
123
100
AcDbEntity
8
0
100
AcDbPolyline
90
4
70
1
43
0.0
10
-11.337170686123716
20
-16.131939224178868
42
0.99999999999999989
10
-16.33717068612372
20
-16.131939224178872
10
-16.337170686123716
20
-31.131939224178868
42
0.99999999999999989
10
-11.337170686123716
20
-31.131939224178868
0
LWPOLYLINE
5
124
100
AcDbEntity
8
0
100
AcDbPolyline
90
4
70
1
43
0.0
10
-371.33717068612378
20
-16.131939224178868
10
-371.33717068612378
20
-31.131939224178868
42
-0.99999999999999989
10
-376.33717068612378
20
-31.131939224178868
10
-376.33717068612378
20
-16.131939224178868
42
-0.99999999999999989
0
LWPOLYLINE
5
125
100
AcDbEntity
8
0
100
AcDbPolyline
90
4
70
1
43
0.0
10
-16.337170686123716
20
-231.13193922417889
10
-16.337170686123716
20
-216.13193922417889
42
-0.99999999999999989
10
-11.337170686123716
20
-216.13193922417889
10
-11.337170686123716
20
-231.13193922417889
42
-0.99999999999999989
0
LWPOLYLINE
5
126
100
AcDbEntity
8
0
100
AcDbPolyline
90
4
70
1
43
0.0
10
-110.0633117023271
20
-115.86854111568073
10
-110.0633117023271
20
-93.687877031352102
10
-18.663006909759012
20
-93.687877031352102
10
-18.663006909759019
20
-115.86854111568073
0
LWPOLYLINE
5
127
100
AcDbEntity
8
0
100
AcDbPolyline
90
16
70
1
43
0.0
10
-379.75397926313462
20
-248.82314037332421
10
-10
20
-248.82314037332421
42
0.41421356237309398
10
1.3016204936146695e-28
20
-238.82314037332418
10
-1.1102230246251565e-15
20
-10
42
0.41421356237309559
10
-9.9999999999999982
20
-1.1102230246251345e-15
10
-169.02010705734739
20
0
42
0.41421356237309326
10
-179.02010705734739
20
-10
10
-179.02010705734739
20
-97.436950191914505
42
-0.41421356237309503
10
-189.02010705734739
20
-107.43695019191451
10
-224.3704593950813
20
-107.43695019191451
42
-0.41421356237309503
10
-234.3704593950813
20
-97.436950191914505
10
-234.3704593950813
20
-10
42
0.41421356237309326
10
-244.3704593950813
20
8.8817841970012523e-15
10
-379.75397926313462
20
0
42
0.41421356237309431
10
-389.75397926313462
20
-9.9999999999999982
10
-389.75397926313462
20
-238.82314037332421
42
0.41421356237309503
0
LWPOLYLINE
5
128
100
AcDbEntity
8
0
100
AcDbPolyline
90
4
70
1
43
0.0
10
-216.33717068612373
20
-231.13193922417889
10
-216.33717068612373
20
-216.13193922417889
42
-0.99999999999999989
10
-211.33717068612373
20
-216.13193922417889
10
-211.33717068612373
20
-231.13193922417889
42
-0.99999999999999989
0
LWPOLYLINE
5
129
100
AcDbEntity
8
0
100
AcDbPolyline
90
4
70
1
43
0.0
10
-110.0633117023271
20
-174.96373833388841
10
-110.0633117023271
20
-151.19330243516708
10
-18.66300690975903
20
-151.19330243516708
10
-18.663006909759044
20
-174.96373833388841
0
LWPOLYLINE
5
130
100
AcDbEntity
8
0
100
AcDbPolyline
90
4
70
1
43
0.0
10
-196.69571928670729
20
-231.64500546741186
10
-196.6957192867072
20
-186.64500546741249
10
-26.695719286709291
20
-186.64500546741263
10
-26.695719286709306
20
-231.64500546741203
0
LWPOLYLINE
5
131
100
AcDbEntity
8
0
100
AcDbPolyline
90
4
70
1
43
0.0
10
-216.33717068612373
20
-191.13193922417889
10
-216.33717068612373
20
-176.13193922417889
42
-0.99999999999999989
10
-211.33717068612373
20
-176.13193922417889
10
-211.33717068612373
20
-191.13193922417889
42
-0.99999999999999989
0
LWPOLYLINE
5
132
100
AcDbEntity
8
0
100
AcDbPolyline
90
8
70
1
43
0.0
10
-346.41028669517226
20
-201.24326506803484
10
-346.41028669517226
20
-150.24326506803482
42
-0.41421356237309503
10
-344.4102866951722
20
-148.24326506803484
10
-336.41028669517226
20
-148.24326506803479
42
-0.41421356237309503
10
-334.4102866951722
20
-150.24326506803482
10
-334.4102866951722
20
-201.24326506803484
42
-0.41421356237309503
10
-336.41028669517226
20
-203.24326506803484
10
-344.4102866951722
20
-203.24326506803487
42
-0.41421356237309503
0
LWPOLYLINE
5
133
100
AcDbEntity
8
0
100
AcDbPolyline
90
8
70
1
43
0.0
10
-361.73416241966498
20
-117.04894935619832
10
-375.73416241966504
20
-117.04894935619828
42
-0.41421356237309503
10
-378.73416241966504
20
-114.04894935619831
10
-378.7341624196651
20
-90.048949356198321
42
-0.41421356237309503
10
-375.73416241966504
20
-87.048949356198321
10
-361.73416241966498
20
-87.048949356198349
42
-0.41421356237309503
10
-358.73416241966504
20
-90.048949356198321
10
-358.73416241966493
20
-114.04894935619831
42
-0.41421356237309503
0
CIRCLE
5
134
100
AcDbEntity
8
0
100
AcDbCircle
10
-10.000000000000036
20
-238.82314037332418
30
0
40
1.5000000000000058
210
0
220
-0
230
1
0
CIRCLE
5
135
100
AcDbEntity
8
0
100
AcDbCircle
10
-379.75397926313462
20
-10.000000000000021
30
0
40
1.4999999999999858
210
0
220
-0
230
1
0
LWPOLYLINE
5
136
100
AcDbEntity
8
0
100
AcDbPolyline
90
4
70
1
43
0.0
10
-371.33717068612378
20
-216.13193922417889
10
-371.33717068612378
20
-231.13193922417889
42
-0.99999999999999989
10
-376.33717068612378
20
-231.13193922417889
10
-376.33717068612378
20
-216.13193922417889
42
-0.99999999999999989
0
CIRCLE
5
137
100
AcDbEntity
8
0
100
AcDbCircle
10
-169.19528322621403
20
-94.936950191914576
30
0
40
1.5500000000000114
210
0
220
-0
230
1
0
CIRCLE
5
138
100
AcDbEntity
8
0
100
AcDbCircle
10
-379.75397926313462
20
-238.82314037332421
30
0
40
1.4999999999999858
210
0
220
-0
230
1
0
CIRCLE
5
139
100
AcDbEntity
8
0
100
AcDbCircle
10
-244.19528322621403
20
-94.936950191914576
30
0
40
1.5500000000000114
210
0
220
-0
230
1
0
CIRCLE
5
140
100
AcDbEntity
8
0
100
AcDbCircle
10
-244.19528322621403
20
-19.93695019191458
30
0
40
1.5500000000000114
210
0
220
-0
230
1
0
ENDSEC
0
SECTION
2
OBJECTS
0
DICTIONARY
5
C
100
AcDbDictionary
3
ACAD_GROUP
350
D
3
ACAD_MLINESTYLE
350
17
0
DICTIONARY
5
D
100
AcDbDictionary
0
DICTIONARY
5
1A
330
C
100
AcDbDictionary
0
DICTIONARY
5
17
100
AcDbDictionary
0
ENDSEC
0
EOF
